<?xml version="1.0" encoding="UTF-8"?>
<!DOCTYPE svg PUBLIC "-//W3C//DTD SVG 1.1//EN" "http://www.w3.org/Graphics/SVG/1.1/DTD/svg11.dtd">
<!-- Creator: CorelDRAW X7 -->
<svg xmlns="http://www.w3.org/2000/svg" xml:space="preserve" width="2990px" height="1220px" version="1.1" style="shape-rendering:geometricPrecision; text-rendering:geometricPrecision; image-rendering:optimizeQuality; fill-rule:evenodd; clip-rule:evenodd"
viewBox="0 0 29900 12199"
 xmlns:xlink="http://www.w3.org/1999/xlink">
 <defs>
  <style type="text/css">
   <![CDATA[
    .fil5 {fill:#FEFEFE}
    .fil11 {fill:#5B5B5B}
    .fil2 {fill:#2B2A29}
    .fil7 {fill:#2B2A29}
    .fil3 {fill:#E31E24}
    .fil1 {fill:#287513}
    .fil4 {fill:#2CA50C}
    .fil0 {fill:#308C17}
    .fil13 {fill:#E31E24}
    .fil16 {fill:#EC792A}
    .fil9 {fill:#FEFEFE;fill-rule:nonzero}
    .fil8 {fill:#FEFEFE;fill-rule:nonzero}
    .fil15 {fill:#5B5B5B;fill-rule:nonzero}
    .fil12 {fill:#434242;fill-rule:nonzero}
    .fil10 {fill:#287513;fill-rule:nonzero}
    .fil6 {fill:#FEFEFE;fill-rule:nonzero}
    .fil14 {fill:white;fill-rule:nonzero}
   ]]>
  </style>
 </defs>
 <g id="Layer_x0020_1">
  <metadata id="CorelCorpID_0Corel-Layer"/>
  <path class="fil0" d="M4121 184c546,-146 1110,-184 1675,-184l23294 0c446,0 810,364 810,810l0 9500c0,445 -364,810 -810,809l-23775 -10c-884,-1 -1752,-290 -2534,-741 -1281,-740 -2209,-1945 -2592,-3374 -381,-1427 -181,-2940 557,-4219 736,-1274 1950,-2209 3375,-2591z"/>
  <path class="fil1" d="M5589 484l23371 0c275,0 499,225 499,500l0 9139c0,274 -224,499 -499,499l-23369 0c-274,0 -47,-225 -47,-499l0 -9139c0,-275 -230,-500 45,-500z"/>
  <polygon class="fil2" points="20339,9000 22628,9000 22628,7659 20339,7659 "/>
  <polygon class="fil3" points="17956,9000 17956,7659 20293,7659 20293,9000 "/>
  <path class="fil4" d="M12056 2815c32,-78 65,-156 100,-234 27,-59 55,-118 87,-176 24,-43 51,-86 82,-125 34,-43 72,-79 120,-105 64,-36 137,-49 209,-55 47,-4 94,-5 141,-6 58,0 116,1 174,1 53,1 105,2 158,2l20 0 0 4370 -20 0c-53,0 -105,1 -158,1 -58,1 -116,2 -174,1 -47,0 -94,-1 -141,-5 -72,-6 -145,-19 -209,-55 -48,-26 -86,-62 -120,-105 -31,-39 -58,-82 -82,-126 -32,-57 -60,-116 -87,-176 -35,-77 -68,-155 -100,-234 -42,-99 -82,-199 -122,-299 -70,-173 -140,-346 -211,-518 -91,-221 -185,-442 -280,-661l-4 -8 4 -8c95,-220 189,-440 280,-661 71,-172 141,-345 211,-518 40,-100 80,-200 122,-300z"/>
  <path class="fil5" d="M27412 6553l0 1984c0,141 -56,275 -156,374 -99,99 -233,155 -373,155l-13227 0c-141,0 -274,-56 -374,-155 -99,-99 -155,-233 -155,-374l0 -1984c-52,0 -105,1 -157,1 -107,2 -217,5 -323,-4 -78,-7 -156,-20 -226,-57 -59,-32 -107,-76 -148,-128 -72,-90 -128,-207 -176,-312 -35,-78 -69,-158 -102,-237 -41,-101 -82,-202 -123,-303 -70,-174 -140,-348 -212,-521 -93,-225 -188,-449 -286,-673l-7 -17 7 -17c98,-224 193,-448 286,-673 72,-174 142,-347 212,-521 41,-101 82,-203 123,-303 33,-80 67,-159 102,-237 48,-105 104,-222 176,-313 41,-52 89,-96 148,-127 70,-37 148,-51 226,-57 106,-9 216,-6 323,-5 60,1 121,2 182,2l14944 0c135,0 264,54 359,149 96,96 149,224 149,359l0 3485c0,136 -53,264 -149,360 -95,95 -224,149 -359,149l-684 0zm-87 1040l0 -1040 -4631 0 0 1040 4631 0zm-2272 1387l1830 0c117,0 229,-47 312,-130 83,-83 130,-195 130,-313l0 -857 -2272 0 0 1300zm-2359 0l2272 0 0 -1300 -2272 0 0 1300zm-2335 0l2248 0 0 -1300 -2248 0 0 1300zm-2383 0l2296 0 0 -1300 -2296 0 0 1300zm-2359 0l2272 0 0 -1300 -2272 0 0 1300zm-2403 -1300l0 857c0,118 47,230 130,313 83,83 194,130 312,130l1874 0 0 -1300 -2316 0zm0 -1127l0 1040 4675 0 0 -1040 -4675 0zm-87 -87l0 -4329c-53,0 -105,-1 -158,-1 -58,-1 -116,-2 -173,-1 -47,0 -94,1 -140,5 -69,6 -139,18 -201,52 -45,25 -82,60 -114,100 -31,38 -57,81 -80,123 -32,57 -60,116 -87,175 -34,77 -67,155 -100,233 -41,100 -81,200 -121,300 -70,173 -140,346 -211,518 -92,221 -185,441 -281,661 96,219 189,440 281,661 71,172 141,345 211,518 40,100 80,200 121,300 33,78 66,156 100,233 27,59 55,118 87,174 23,43 49,85 80,124 32,40 69,74 114,99 62,34 132,47 201,53 46,4 93,5 140,5 57,0 115,0 173,-1 53,-1 105,-1 158,-2zm4849 1127l4631 0 0 -1040 -4631 0 0 1040zm-4762 -2609l1137 0 0 -1355 -1137 0 0 1355zm0 -1442l1137 0 0 -1405 -1137 0 0 1405zm1223 -1405l0 1405 1093 0 0 -1405 -1093 0zm1180 0l0 1405 1093 0 0 -1405 -1093 0zm1179 0l0 1405 1093 0 0 -1405 -1093 0zm1180 0l0 1405 1093 0 0 -1405 -1093 0zm1179 0l0 1405 1093 0 0 -1405 -1093 0zm1180 0l0 1405 1093 0 0 -1405 -1093 0zm1179 0l0 1405 1093 0 0 -1405 -1093 0zm1180 0l0 1405 1093 0 0 -1405 -1093 0zm1179 0l0 1405 1093 0 0 -1405 -1093 0zm1180 0l0 1405 1093 0 0 -1405 -1093 0zm1179 0l0 1405 1093 0 0 -1405 -1093 0zm1180 0l0 1405 1106 0 0 -983c0,-112 -45,-218 -124,-298 -79,-79 -186,-124 -298,-124l-684 0zm1106 1492l-1106 0 0 1355 1106 0 0 -1355zm0 1441l-1106 0 0 1396 684 0c112,0 219,-44 298,-124 79,-79 124,-185 124,-298l0 -974zm-1193 1396l0 -1396 -1093 0 0 1396 1093 0zm-1179 0l0 -1396 -1093 0 0 1396 1093 0zm-1180 0l0 -1396 -1093 0 0 1396 1093 0zm-1179 0l0 -1396 -1093 0 0 1396 1093 0zm-1180 0l0 -1396 -1093 0 0 1396 1093 0zm-1179 0l0 -1396 -1093 0 0 1396 1093 0zm-1180 0l0 -1396 -1093 0 0 1396 1093 0zm-1179 0l0 -1396 -1093 0 0 1396 1093 0zm-1180 0l0 -1396 -1093 0 0 1396 1093 0zm-1179 0l0 -1396 -1093 0 0 1396 1093 0zm-1180 0l0 -1396 -1093 0 0 1396 1093 0zm-1179 0l0 -1396 -1137 0 0 1396 1137 0zm11881 -1482l1093 0 0 -1355 -1093 0 0 1355zm-1179 0l1093 0 0 -1355 -1093 0 0 1355zm-1180 0l1093 0 0 -1355 -1093 0 0 1355zm-1179 0l1093 0 0 -1355 -1093 0 0 1355zm-1180 0l1093 0 0 -1355 -1093 0 0 1355zm-1179 0l1093 0 0 -1355 -1093 0 0 1355zm-1180 0l1093 0 0 -1355 -1093 0 0 1355zm-1179 0l1093 0 0 -1355 -1093 0 0 1355zm-1180 0l1093 0 0 -1355 -1093 0 0 1355zm-1179 0l1093 0 0 -1355 -1093 0 0 1355zm-1180 0l1093 0 0 -1355 -1093 0 0 1355z"/>
  <path class="fil6" d="M12075 4301c0,159 142,235 320,235 175,-1 318,-71 318,-229 0,-158 -131,-236 -322,-236 -169,0 -316,65 -316,230zm109 2c0,-58 72,-87 209,-87 140,0 211,30 211,87 0,55 -68,89 -209,89 -143,0 -211,-36 -211,-89z"/>
  <polygon class="fil3" points="13214,5070 13214,6466 14351,6466 14351,5070 "/>
  <polygon class="fil3" points="13214,3542 14351,3542 14351,2137 13214,2137 "/>
  <polygon class="fil3" points="14437,3629 14437,4984 15530,4984 15530,3629 "/>
  <polygon class="fil3" points="15617,5070 15617,6466 16710,6466 16710,5070 "/>
  <polygon class="fil3" points="15617,3542 16710,3542 16710,2137 15617,2137 "/>
  <polygon class="fil3" points="16796,2137 16796,3542 17889,3542 17889,2137 "/>
  <polygon class="fil3" points="17976,3629 17976,4984 19069,4984 19069,3629 "/>
  <polygon class="fil3" points="19155,5070 19155,6466 20248,6466 20248,5070 "/>
  <polygon class="fil3" points="19155,3542 20248,3542 20248,2137 19155,2137 "/>
  <polygon class="fil3" points="20335,2137 20335,3542 21428,3542 21428,2137 "/>
  <polygon class="fil3" points="21428,5070 20335,5070 20335,6466 21428,6466 "/>
  <polygon class="fil3" points="21514,3629 21514,4984 22607,4984 22607,3629 "/>
  <polygon class="fil3" points="22694,2137 22694,3542 23787,3542 23787,2137 "/>
  <polygon class="fil3" points="23873,2137 23873,3542 24966,3542 24966,2137 "/>
  <polygon class="fil3" points="26232,2137 26232,3542 27325,3542 27325,2137 "/>
  <polygon class="fil3" points="26146,3629 25053,3629 25053,4984 26146,4984 "/>
  <polygon class="fil3" points="27325,5070 26232,5070 26232,6466 27325,6466 "/>
  <polygon class="fil3" points="23787,6466 23787,5070 22694,5070 22694,6466 "/>
  <g id="_1145282000">
   <polygon class="fil7" points="15530,6466 15530,5070 14437,5070 14437,6466 "/>
   <polygon class="fil7" points="13214,4984 14351,4984 14351,3629 13214,3629 "/>
   <polygon class="fil7" points="14437,2137 14437,3542 15530,3542 15530,2137 "/>
   <polygon class="fil7" points="15617,3629 15617,4984 16710,4984 16710,3629 "/>
   <polygon class="fil7" points="16796,5070 16796,6466 17889,6466 17889,5070 "/>
   <polygon class="fil7" points="16796,4984 17889,4984 17889,3629 16796,3629 "/>
   <polygon class="fil7" points="17976,3542 19069,3542 19069,2137 17976,2137 "/>
   <polygon class="fil7" points="19069,5070 17976,5070 17976,6466 19069,6466 "/>
   <polygon class="fil7" points="19155,3629 19155,4984 20248,4984 20248,3629 "/>
   <polygon class="fil7" points="20335,3629 20335,4984 21428,4984 21428,3629 "/>
   <polygon class="fil7" points="21514,2137 21514,3542 22607,3542 22607,2137 "/>
   <polygon class="fil7" points="22607,5070 21514,5070 21514,6466 22607,6466 "/>
   <polygon class="fil7" points="22694,3629 22694,4984 23787,4984 23787,3629 "/>
   <polygon class="fil7" points="23873,3629 23873,4984 24966,4984 24966,3629 "/>
   <polygon class="fil7" points="25053,2137 25053,3542 26146,3542 26146,2137 "/>
   <polygon class="fil7" points="24966,5070 23873,5070 23873,6466 24966,6466 "/>
   <polygon class="fil7" points="25053,5070 25053,6466 26146,6466 26146,5070 "/>
   <polygon class="fil7" points="26232,4984 27325,4984 27325,3629 26232,3629 "/>
  </g>
  <polygon class="fil8" points="14018,5767 14018,5660 13547,5660 13547,5752 13604,5876 13687,5858 13644,5768 13644,5767 "/>
  <path class="fil8" d="M14022 4139l-91 0 0 178 -1 0 -37 -44c-60,-69 -123,-126 -203,-126 -85,0 -147,59 -147,166 0,64 21,118 48,155l79 -32c-19,-25 -39,-60 -39,-101 0,-54 30,-77 69,-77 55,2 108,51 200,154l56 62 66 0 0 -335 0 0z"/>
  <path class="fil8" d="M13993 3007c17,-28 33,-80 33,-141 0,-120 -60,-193 -145,-193 -61,0 -104,46 -114,103l-1 0c-20,-59 -60,-87 -110,-87 -65,0 -118,56 -118,157 0,61 18,117 36,146l80 -23c-12,-20 -29,-60 -29,-98 0,-47 21,-70 50,-70 39,0 53,47 54,84l0 43 80 0 0 -45c0,-48 20,-95 67,-95 35,0 64,29 64,86 0,45 -20,90 -30,110l83 23 0 0z"/>
  <path class="fil8" d="M15220 5639l-113 0 0 -56 -82 0 0 56 -277 0 0 136 288 179 71 0 0 -210 113 0 0 -105 0 0zm-195 211l-2 0 -103 -63c-30,-16 -57,-28 -88,-43l0 -3c31,2 60,3 88,3l105 0 0 106 0 0z"/>
  <path class="fil8" d="M14744 4159l0 259 247 31c-3,-19 -4,-37 -4,-63 0,-95 30,-133 79,-133 50,0 71,48 71,95 0,42 -13,85 -23,106l83 19c14,-26 27,-73 27,-130 0,-128 -78,-204 -165,-204 -56,0 -95,23 -119,58 -24,33 -34,79 -34,124 0,11 0,21 1,31l-72 -10 0 -183 -91 0 0 0z"/>
  <path class="fil8" d="M14741 2710c-1,11 -1,24 0,44 4,75 27,136 70,183 48,51 121,84 210,84 113,0 206,-62 206,-188 0,-102 -77,-174 -170,-174 -98,0 -154,67 -154,146 0,44 14,77 37,100l0 2c-54,-12 -105,-55 -113,-154 -2,-17 -2,-30 -2,-43l-84 0 0 0zm405 125c0,50 -45,74 -95,76 -13,0 -22,-2 -28,-5 -24,-10 -42,-35 -42,-65 0,-47 37,-71 82,-71 48,0 83,26 83,65l0 0z"/>
  <polygon class="fil8" points="15927,5935 16019,5935 16019,5719 16020,5719 16400,5913 16400,5797 15998,5602 15927,5602 "/>
  <path class="fil8" d="M16408 4309c0,-110 -58,-181 -144,-181 -60,0 -100,40 -118,86l-2 0c-23,-47 -63,-68 -103,-68 -58,0 -122,45 -122,156 0,94 53,167 133,167 42,0 80,-23 103,-69l2 0c23,52 63,85 119,85 64,0 132,-56 132,-176l0 0zm-77 -4c0,41 -32,67 -66,67 -34,0 -60,-21 -70,-58 12,-43 36,-74 77,-74 34,0 59,26 59,65l0 0zm-336 2c0,-40 29,-57 57,-57 30,0 53,23 60,48 -11,37 -31,66 -63,66 -30,0 -54,-19 -54,-57l0 0z"/>
  <path class="fil8" d="M16406 2975c1,-13 2,-32 0,-51 -3,-73 -25,-134 -65,-180 -48,-51 -120,-82 -217,-82 -111,0 -204,57 -204,178 0,104 78,178 169,178 92,0 148,-68 148,-147 0,-43 -12,-73 -34,-94l1 -2c35,8 66,29 86,59 19,25 28,59 30,92 2,22 2,34 0,49l86 0 0 0zm-406 -132c0,-50 50,-68 99,-68 15,0 22,2 29,5 17,11 31,31 31,61 0,45 -35,67 -76,67 -49,0 -83,-27 -83,-65z"/>
  <path class="fil8" d="M17579 6019l0 -107 -472 0 0 91 58 126 82 -18 -43 -91 0 -1 375 0zm-480 -435c0,122 108,180 244,180 134,-1 244,-54 244,-177 0,-121 -100,-179 -246,-179 -130,0 -242,49 -242,176zm83 1c0,-44 55,-66 160,-66 107,0 161,23 161,65 0,43 -52,69 -160,68 -110,1 -161,-26 -161,-67z"/>
  <path class="fil8" d="M17579 4506l0 -106 -472 0 0 91 58 125 82 -18 -43 -90 0 -2 375 0zm0 -403l0 -106 -472 0 0 91 58 125 82 -18 -43 -90 0 -2 375 0z"/>
  <path class="fil8" d="M17583 3083l0 -107 -472 0 0 91 58 126 82 -19 -43 -89 0 -2 375 0zm0 -596l-91 0 0 177 -1 0 -37 -44c-61,-68 -124,-125 -204,-125 -85,0 -147,59 -147,165 0,65 22,119 48,155l79 -31c-19,-25 -39,-60 -39,-101 0,-55 30,-78 69,-78 56,1 108,51 200,155l56 61 67 0 0 -334 0 0z"/>
  <path class="fil8" d="M18758 6010l0 -107 -471 0 0 91 57 126 83 -18 -43 -91 0 -1 374 0zm-25 -259c17,-28 33,-80 33,-141 0,-120 -61,-193 -145,-193 -61,0 -104,45 -114,103l-1 0c-20,-59 -60,-87 -110,-87 -65,0 -117,55 -117,157 0,61 17,118 35,146l80 -22c-12,-20 -29,-61 -29,-100 0,-46 21,-69 49,-69 40,0 55,47 56,84l0 43 78 0 0 -45c0,-49 21,-95 68,-95 35,0 63,29 63,86 0,45 -18,91 -29,110l83 23 0 0z"/>
  <path class="fil8" d="M18758 4561l0 -107 -471 0 0 92 57 124 83 -18 -43 -89 0 -2 374 0zm0 -562l-113 0 0 -57 -82 0 0 57 -276 0 0 135 287 178 71 0 0 -209 113 0 0 -104 0 0zm-195 211l-2 0 -102 -63c-31,-17 -58,-29 -89,-45l0 -2c31,2 60,3 89,3l104 0 0 107 0 0z"/>
  <path class="fil8" d="M18754 3083l0 -106 -471 0 0 91 57 125 83 -18 -43 -90 0 -2 374 0zm-471 -577l0 259 247 32c-3,-19 -4,-38 -4,-64 0,-94 29,-132 78,-132 51,0 72,48 72,94 0,42 -13,86 -24,107l83 19c14,-26 27,-74 27,-132 0,-127 -77,-202 -166,-202 -54,0 -93,22 -117,57 -25,34 -35,80 -35,125 0,11 0,20 1,30l-72 -10 0 -183 -90 0 0 0z"/>
  <path class="fil8" d="M19938 6021l0 -107 -472 0 0 92 58 125 82 -18 -43 -91 0 -1 375 0zm-479 -564c0,11 0,24 1,45 4,74 27,134 69,181 47,52 122,85 210,85 113,0 206,-62 206,-188 0,-103 -76,-174 -170,-174 -98,0 -155,66 -155,146 0,44 14,77 39,100l0 2c-56,-12 -106,-56 -114,-153 -1,-19 -2,-32 -1,-44l-85 0 0 0zm406 125c0,49 -46,73 -96,75 -13,0 -22,-1 -28,-4 -23,-11 -41,-35 -41,-65 0,-47 37,-70 80,-70 48,0 85,25 85,64l0 0z"/>
  <path class="fil8" d="M19938 4552l0 -107 -472 0 0 91 58 125 82 -18 -42 -89 0 -2 374 0zm-472 -268l91 0 0 -216 1 0 380 195 0 -117 -402 -194 -70 0 0 332z"/>
  <path class="fil8" d="M19938 3091l0 -107 -472 0 0 91 58 126 82 -18 -42 -91 0 -1 374 0zm8 -430c0,-110 -57,-182 -144,-182 -60,0 -99,41 -117,86l-2 0c-23,-46 -64,-68 -104,-68 -57,0 -121,46 -121,157 0,94 53,166 132,166 42,0 81,-22 104,-69l2 0c23,53 62,85 118,85 65,0 132,-55 132,-175l0 0zm-76 -4c0,41 -32,67 -67,66 -34,0 -60,-21 -70,-57 12,-43 36,-74 77,-74 35,0 60,26 60,65l0 0zm-337 2c0,-41 29,-57 57,-57 30,0 54,22 61,47 -11,38 -32,67 -64,67 -30,0 -54,-20 -54,-57l0 0z"/>
  <path class="fil8" d="M21118 6019l0 -107 -472 0 0 92 58 124 82 -18 -42 -89 0 -2 374 0zm6 -297c1,-13 2,-31 0,-50 -3,-73 -25,-136 -66,-180 -48,-52 -119,-83 -217,-83 -111,0 -203,57 -203,178 0,104 77,178 169,178 92,0 148,-67 148,-147 0,-43 -13,-74 -34,-95l1 -2c35,9 65,29 86,59 18,27 28,61 30,94 2,22 2,34 0,48l86 0 0 0zm-406 -132c0,-50 49,-69 99,-69 14,0 22,2 29,6 16,10 31,31 31,61 0,45 -35,67 -76,67 -50,1 -83,-27 -83,-65z"/>
  <path class="fil8" d="M21118 4348l-92 0 0 177 -1 0 -36 -43c-61,-68 -125,-125 -204,-125 -86,0 -148,58 -148,164 0,65 22,120 48,155l80 -31c-19,-24 -39,-60 -39,-100 0,-55 31,-79 69,-79 55,2 107,52 200,155l55 61 68 0 0 -334 0 0zm-481 -242c0,122 109,180 245,180 133,0 244,-54 244,-176 0,-120 -101,-180 -247,-180 -129,0 -242,50 -242,176zm84 2c0,-45 55,-67 159,-67 108,0 161,23 161,66 0,43 -51,69 -159,69 -110,0 -161,-27 -161,-68z"/>
  <path class="fil8" d="M21122 2831l-92 0 0 178 -1 0 -36 -45c-61,-68 -125,-125 -204,-125 -86,0 -148,59 -148,166 0,64 22,119 48,154l80 -31c-19,-25 -39,-60 -39,-101 0,-54 30,-78 69,-78 55,2 107,52 200,155l55 61 68 0 0 -334 0 0zm0 -209l0 -108 -473 0 0 92 58 125 83 -18 -43 -90 0 -1 375 0z"/>
  <path class="fil8" d="M22301 5803l-90 0 0 177 -2 0 -37 -43c-61,-68 -123,-125 -203,-125 -85,0 -148,58 -148,165 0,64 22,119 49,155l79 -32c-19,-24 -39,-60 -39,-100 0,-55 30,-78 68,-78 56,1 109,51 201,155l56 60 66 0 0 -334 0 0zm0 -403l-90 0 0 177 -2 0 -37 -43c-61,-68 -123,-125 -203,-125 -85,0 -148,58 -148,165 0,64 22,119 49,155l79 -32c-19,-24 -39,-60 -39,-100 0,-55 30,-78 68,-78 56,1 109,51 201,155l56 60 66 0 0 -334 0 0z"/>
  <path class="fil8" d="M22297 4338l-91 0 0 178 -2 0 -36 -43c-60,-68 -124,-125 -203,-125 -86,0 -148,58 -148,164 0,65 21,120 48,155l80 -31c-19,-24 -39,-60 -39,-101 0,-54 30,-78 68,-78 55,2 108,52 201,155l55 61 67 0 0 -335 0 0zm-26 -65c17,-28 34,-79 34,-141 0,-119 -62,-193 -145,-193 -61,0 -105,47 -115,103l-1 0c-21,-58 -60,-86 -109,-86 -66,0 -118,56 -118,156 0,62 17,118 35,146l80 -22c-11,-19 -28,-60 -28,-99 0,-46 21,-70 49,-70 40,0 54,47 55,85l0 43 78 0 0 -45c0,-49 22,-96 69,-96 35,0 62,29 62,86 0,46 -18,91 -29,110l83 23 0 0z"/>
  <path class="fil8" d="M22301 2885l-90 0 0 178 -2 0 -37 -43c-61,-69 -123,-126 -203,-126 -85,0 -148,58 -148,165 0,64 22,120 49,155l79 -31c-19,-25 -39,-61 -39,-101 0,-55 30,-78 68,-78 56,2 109,52 201,154l56 62 66 0 0 -335 0 0zm0 -369l-113 0 0 -56 -82 0 0 56 -277 0 0 136 288 179 71 0 0 -209 113 0 0 -106 0 0zm-195 211l-2 0 -102 -63c-31,-16 -58,-28 -89,-43l0 -3c31,2 59,4 89,4l104 0 0 105 0 0z"/>
  <path class="fil8" d="M23476 5802l-90 0 0 178 -2 0 -37 -43c-60,-69 -123,-126 -203,-126 -85,0 -147,58 -147,165 0,64 21,120 48,155l79 -31c-19,-25 -39,-61 -39,-101 0,-55 30,-78 68,-78 56,2 109,52 201,154l56 62 66 0 0 -335 0 0zm-471 -384l0 260 247 32c-3,-20 -4,-39 -4,-65 0,-93 29,-132 78,-132 50,0 72,49 72,94 0,43 -13,86 -24,107l83 20c14,-26 27,-75 27,-132 0,-127 -77,-202 -166,-202 -54,0 -93,21 -117,57 -25,33 -35,79 -35,124 0,12 0,20 1,31l-72 -11 0 -183 -90 0 0 0z"/>
  <path class="fil8" d="M23476 4350l-90 0 0 177 -2 0 -37 -43c-60,-68 -123,-125 -203,-125 -85,0 -147,58 -147,165 0,64 21,119 48,154l79 -31c-19,-24 -39,-60 -39,-100 0,-55 30,-78 68,-78 56,1 109,51 201,155l56 60 66 0 0 -334 0 0zm-478 -370c-1,11 -1,24 1,44 3,74 27,136 69,183 47,50 122,83 210,83 113,0 206,-62 206,-188 0,-101 -76,-174 -171,-174 -97,0 -154,68 -154,146 0,44 14,78 39,101l0 2c-56,-12 -106,-56 -114,-154 -1,-17 -2,-30 -1,-43l-85 0 0 0zm405 124c0,51 -46,75 -95,77 -13,0 -22,-2 -28,-5 -24,-10 -42,-36 -42,-66 0,-47 38,-70 81,-70 48,0 84,25 84,64l0 0z"/>
  <path class="fil8" d="M23480 2876l-90 0 0 178 -2 0 -37 -44c-60,-68 -123,-126 -203,-126 -85,0 -147,59 -147,166 0,64 21,120 48,155l79 -31c-19,-26 -39,-61 -39,-101 0,-55 30,-78 68,-78 56,2 109,52 201,154l56 62 66 0 0 -335 0 0zm-471 -73l90 0 0 -217 1 0 380 195 0 -117 -402 -195 -69 0 0 334z"/>
  <path class="fil8" d="M24656 5809l-90 0 0 178 -2 0 -37 -43c-60,-69 -123,-126 -203,-126 -85,0 -148,59 -148,166 0,63 22,119 49,155l79 -31c-19,-26 -39,-61 -39,-102 0,-54 30,-77 68,-77 56,1 109,51 201,154l56 62 66 0 0 -336 0 0zm8 -235c0,-110 -57,-182 -143,-182 -61,0 -100,40 -117,86l-3 0c-23,-46 -63,-68 -104,-68 -57,0 -121,46 -121,156 0,94 53,167 133,167 41,0 80,-23 103,-69l2 0c23,52 62,85 118,85 65,0 132,-55 132,-175l0 0zm-76 -5c0,41 -33,67 -67,67 -34,0 -60,-21 -70,-57 12,-44 36,-74 78,-74 34,0 59,25 59,64l0 0zm-337 2c0,-40 29,-57 58,-57 29,0 52,23 61,48 -13,38 -33,67 -65,67 -30,0 -54,-20 -54,-58l0 0z"/>
  <path class="fil8" d="M24656 4347l-90 0 0 178 -2 0 -36 -44c-61,-69 -124,-126 -203,-126 -86,0 -149,59 -149,166 0,64 22,120 49,155l79 -31c-19,-26 -39,-61 -39,-102 0,-54 30,-77 69,-77 55,2 108,51 201,154l55 62 66 0 0 -335 0 0zm7 -103c0,-13 1,-32 0,-51 -3,-73 -26,-134 -66,-180 -47,-51 -120,-82 -217,-82 -111,0 -204,57 -204,178 0,104 78,178 171,178 91,0 146,-68 146,-147 0,-43 -12,-73 -34,-94l1 -2c35,8 67,28 88,59 17,25 26,59 29,92 1,22 1,34 0,49l86 0 0 0zm-406 -132c0,-50 49,-68 100,-68 13,0 21,2 27,5 17,10 31,31 31,61 0,45 -34,67 -75,67 -50,0 -83,-27 -83,-65z"/>
  <path class="fil8" d="M24631 3217c17,-27 33,-79 33,-140 0,-120 -61,-193 -145,-193 -61,0 -104,45 -114,103l-1 0c-21,-59 -61,-87 -110,-87 -65,0 -118,55 -118,157 0,60 18,118 36,146l79 -22c-11,-21 -28,-61 -28,-100 0,-46 21,-69 49,-69 40,0 55,47 56,84l0 42 78 0 0 -44c0,-49 21,-95 67,-95 36,0 64,29 64,86 0,45 -19,90 -30,110l84 22 0 0zm-455 -579c0,122 108,181 245,181 133,-1 243,-56 243,-177 0,-121 -100,-179 -246,-179 -130,0 -242,49 -242,175zm84 2c0,-44 54,-68 160,-68 106,0 161,25 161,67 0,43 -52,69 -160,68 -110,1 -161,-27 -161,-67z"/>
  <path class="fil8" d="M25810 6095c17,-27 34,-78 34,-140 0,-119 -62,-193 -145,-193 -62,0 -105,46 -115,103l-2 0c-20,-58 -59,-87 -109,-87 -65,0 -118,56 -118,157 0,61 18,118 36,146l80 -22c-11,-20 -29,-60 -29,-100 0,-46 22,-69 50,-69 40,0 54,47 54,84l0 43 79 0 0 -45c0,-49 22,-95 68,-95 36,0 63,29 63,86 0,46 -19,90 -29,110l83 22 0 0zm25 -547l0 -106 -472 0 0 91 58 125 83 -18 -42 -90 0 -2 373 0z"/>
  <path class="fil8" d="M25810 4677c17,-28 34,-80 34,-141 0,-120 -62,-193 -145,-193 -62,0 -105,46 -115,103l-2 0c-20,-59 -59,-87 -109,-87 -65,0 -118,56 -118,157 0,61 18,117 36,146l80 -22c-11,-21 -28,-61 -28,-99 0,-47 21,-70 49,-70 40,0 54,47 54,84l0 43 79 0 0 -45c0,-49 22,-95 68,-95 36,0 63,29 63,86 0,45 -19,90 -29,110l83 23 0 0zm25 -741l-90 0 0 178 -2 0 -36 -44c-61,-69 -125,-126 -203,-126 -87,0 -149,59 -149,166 0,64 22,119 49,155l79 -32c-18,-25 -40,-60 -40,-101 0,-54 32,-77 70,-77 55,2 108,51 200,154l55 62 67 0 0 -335 0 0z"/>
  <path class="fil8" d="M25810 3208c17,-27 34,-79 34,-140 0,-120 -62,-193 -145,-193 -62,0 -105,45 -115,103l-2 0c-20,-59 -59,-87 -109,-87 -65,0 -118,55 -118,157 0,60 18,117 36,146l80 -22c-11,-21 -29,-61 -29,-100 0,-46 22,-69 50,-69 40,0 54,47 54,84l0 42 79 0 0 -44c0,-49 22,-95 68,-95 36,0 63,29 63,86 0,45 -19,89 -29,110l83 22 0 0zm0 -403c17,-27 34,-79 34,-140 0,-120 -62,-193 -145,-193 -62,0 -105,45 -115,102l-2 0c-20,-58 -59,-86 -109,-86 -65,0 -118,55 -118,157 0,60 18,117 36,146l80 -24c-11,-19 -29,-59 -29,-98 0,-46 22,-69 50,-69 40,0 54,47 54,84l0 42 79 0 0 -44c0,-49 22,-95 68,-95 36,0 63,29 63,86 0,45 -19,89 -29,110l83 22 0 0z"/>
  <path class="fil8" d="M26989 6150c18,-28 34,-80 34,-141 0,-120 -61,-193 -144,-193 -63,0 -105,45 -116,103l-1 0c-20,-59 -59,-87 -109,-87 -65,0 -118,55 -118,157 0,61 17,118 35,146l81 -22c-12,-20 -29,-61 -29,-100 0,-46 22,-69 50,-69 39,0 53,47 54,84l0 43 79 0 0 -45c0,-49 22,-95 68,-95 35,0 63,29 63,86 0,45 -19,91 -29,110l82 23 0 0zm25 -707l-112 0 0 -56 -83 0 0 56 -276 0 0 136 288 178 71 0 0 -209 112 0 0 -105 0 0zm-195 211l-1 0 -103 -63c-30,-16 -57,-28 -87,-43l0 -3c30,2 59,3 87,3l104 0 0 106 0 0z"/>
  <path class="fil8" d="M26989 4676c18,-27 34,-78 34,-140 0,-119 -61,-192 -144,-192 -63,0 -105,45 -116,101l-1 0c-20,-57 -59,-85 -109,-85 -65,0 -118,55 -118,156 0,61 17,118 35,146l81 -23c-12,-19 -29,-60 -29,-98 0,-47 22,-70 50,-70 39,0 53,47 54,85l0 42 79 0 0 -45c0,-49 22,-95 68,-95 35,0 63,29 63,87 0,45 -19,89 -29,109l82 22 0 0zm-446 -720l0 259 247 32c-3,-20 -4,-38 -4,-64 0,-95 29,-133 79,-133 50,0 71,48 71,95 0,42 -13,85 -23,106l83 19c13,-26 27,-73 27,-131 0,-127 -78,-203 -165,-203 -56,0 -95,23 -119,58 -24,33 -34,79 -34,124 0,11 0,20 1,31l-72 -11 0 -182 -91 0 0 0z"/>
  <path class="fil8" d="M26989 3220c18,-28 34,-80 34,-141 0,-120 -61,-193 -144,-193 -63,0 -105,45 -116,103l-1 0c-20,-59 -59,-87 -109,-87 -65,0 -118,55 -118,157 0,61 17,118 35,146l81 -22c-12,-21 -29,-61 -29,-100 0,-46 22,-69 50,-69 39,0 53,47 54,84l0 43 79 0 0 -45c0,-49 22,-95 68,-95 35,0 63,29 63,86 0,45 -19,91 -29,110l82 23 0 0zm-453 -708c0,11 0,24 1,44 4,75 27,135 69,182 48,52 122,84 210,84 113,0 207,-62 207,-187 0,-103 -77,-175 -170,-175 -99,0 -155,67 -155,147 0,44 14,76 38,99l0 3c-55,-13 -105,-56 -114,-155 -1,-17 -2,-30 -1,-42l-85 0zm405 124c0,50 -44,74 -94,76 -13,0 -22,-1 -29,-4 -23,-11 -42,-36 -42,-65 0,-47 38,-71 82,-71 48,0 83,25 83,64l0 0z"/>
  <path class="fil9" d="M13721 8525l92 0 0 -407 -79 0 -107 50 15 72 78 -37 1 0 0 322zm251 -372l0 66 -40 0 0 70 40 0 0 125c0,44 9,73 27,91 15,16 40,26 71,26 27,0 49,-3 62,-8l-1 -72c-7,2 -16,3 -28,3 -29,0 -37,-17 -37,-54l0 -111 68 0 0 -70 -68 0 0 -88 -94 22zm360 59c-99,0 -164,63 -164,162 0,99 69,158 159,158 82,0 161,-51 161,-163 0,-92 -63,-157 -156,-157zm-3 68c43,0 61,46 61,92 0,55 -24,92 -61,92 -41,0 -63,-40 -63,-92 0,-45 17,-92 63,-92zm327 245l92 0 0 -407 -78 0 -108 50 16 72 77 -37 1 0 0 322zm371 7c94,0 156,-49 156,-123 0,-53 -35,-87 -74,-102l0 -2c40,-20 59,-54 59,-89 0,-49 -40,-105 -135,-105 -81,0 -143,46 -143,115 0,36 19,69 59,89l0 2c-45,19 -73,53 -73,102 0,55 48,113 151,113zm4 -66c-36,0 -59,-27 -58,-57 0,-29 18,-52 50,-60 37,10 63,31 63,67 0,28 -22,50 -55,50zm-2 -290c35,0 49,25 49,50 0,26 -19,46 -41,52 -33,-10 -58,-28 -58,-55 0,-26 17,-47 50,-47z"/>
  <path class="fil9" d="M25319 8518l92 0 0 -407 -79 0 -108 51 16 71 77 -37 2 0 0 322zm256 6c10,1 26,1 43,0 63,-3 116,-22 155,-57 44,-41 71,-103 71,-187 0,-95 -49,-175 -154,-175 -89,0 -153,67 -153,146 0,79 58,127 127,127 37,0 63,-11 81,-29l2 0c-7,31 -25,57 -51,75 -22,15 -51,24 -80,25 -19,2 -30,2 -41,0l0 75zm113 -350c43,0 59,43 59,86 0,12 -2,18 -5,24 -8,14 -27,26 -52,26 -39,0 -58,-30 -58,-65 -1,-42 23,-71 56,-71zm229 -28l0 66 -41 0 0 70 41 0 0 126c0,43 9,72 26,90 15,16 41,27 72,27 26,0 49,-4 62,-9l-1 -72c-7,2 -16,3 -28,3 -29,0 -38,-17 -38,-54l0 -111 68 0 0 -70 -68 0 0 -87 -93 21zm359 59c-98,0 -163,64 -163,162 0,99 69,158 158,158 82,0 162,-51 162,-163 0,-92 -63,-157 -157,-157zm-2 68c43,0 60,46 60,92 0,55 -23,92 -60,92 -41,0 -63,-39 -63,-92 0,-45 17,-92 63,-92zm203 223c24,15 68,29 121,29 103,0 166,-52 166,-124 0,-54 -39,-91 -88,-99l0 -2c50,-17 75,-51 75,-94 0,-56 -49,-101 -136,-101 -52,0 -101,15 -125,30l19 69c17,-10 52,-24 85,-24 40,0 60,18 60,42 0,35 -40,47 -72,47l-37 0 0 68 39 0c41,0 82,19 82,59 0,30 -26,54 -75,54 -39,0 -78,-16 -94,-25l-20 71zm610 -390c-10,-1 -21,-1 -38,0 -64,4 -117,24 -158,61 -43,40 -71,104 -71,180 0,97 53,178 161,178 88,0 150,-66 150,-147 0,-84 -57,-133 -126,-133 -38,0 -66,12 -86,33l-2 0c11,-48 48,-91 133,-98 15,-1 26,-2 37,-1l0 -73zm-107 349c-43,0 -64,-39 -66,-82 0,-11 1,-19 4,-24 9,-20 30,-36 56,-36 41,0 61,33 61,70 0,41 -21,72 -55,72z"/>
  <path class="fil9" d="M23407 8089c-129,0 -213,98 -213,229 0,125 76,223 206,223 128,0 215,-87 215,-231 0,-120 -74,-221 -208,-221zm-3 79c68,0 106,67 106,146 0,85 -38,148 -105,148 -66,0 -106,-60 -106,-146 0,-85 38,-148 105,-148zm276 364c24,3 61,6 112,6 86,0 156,-18 202,-56 42,-36 72,-94 72,-178 0,-77 -28,-131 -74,-164 -42,-32 -96,-47 -179,-47 -50,0 -97,3 -133,9l0 430zm99 -359c8,-2 23,-4 45,-4 85,0 138,48 137,139 0,104 -58,154 -148,153 -12,0 -26,0 -34,-2l0 -286zm352 359c25,3 61,6 113,6 85,0 156,-18 202,-56 42,-36 72,-94 72,-178 0,-77 -28,-131 -74,-164 -42,-32 -96,-47 -179,-47 -50,0 -97,3 -134,9l0 430zm100 -359c8,-2 22,-4 45,-4 85,0 138,48 137,139 0,104 -58,154 -148,153 -12,0 -26,0 -34,-2l0 -286z"/>
  <path class="fil9" d="M16251 8268l-161 0 0 -91 170 0 0 -81 -270 0 0 438 279 0 0 -82 -179 0 0 -103 161 0 0 -81zm309 266l148 -438 -105 0 -56 187c-15,50 -29,102 -40,155l-2 0c-10,-55 -24,-105 -39,-157l-53 -185 -108 0 140 438 115 0zm455 -266l-161 0 0 -91 170 0 0 -81 -270 0 0 438 280 0 0 -82 -180 0 0 -103 161 0 0 -81zm177 266l0 -132c0,-72 -1,-133 -4,-191l2 -1c21,52 50,108 76,155l93 169 104 0 0 -438 -91 0 0 128c0,66 2,125 9,182l-2 0c-20,-49 -45,-103 -71,-150l-91 -160 -116 0 0 438 91 0z"/>
  <path class="fil9" d="M14797 7357l125 0 0 -551 -107 0 -146 67 22 97 105 -50 1 0 0 437zm898 0l124 0 0 -551 -107 0 -145 67 21 97 105 -50 2 0 0 437zm696 0l0 -106 -207 0 0 -2 51 -43c79,-71 146,-144 146,-237 0,-100 -68,-173 -193,-173 -75,0 -139,26 -181,57l37 92c29,-22 70,-45 118,-45 63,0 90,35 90,80 -1,65 -60,126 -180,234l-71 65 0 78 390 0zm-1307 -261c17,10 45,16 75,16 68,0 102,-32 102,-76 0,-34 -19,-57 -64,-72 -28,-10 -38,-16 -38,-27 0,-12 11,-19 28,-19 20,0 41,8 51,13l13 -50c-14,-7 -39,-14 -66,-14 -58,0 -95,34 -96,77 0,28 19,55 67,71 27,9 35,15 35,27 0,12 -9,19 -32,19 -21,0 -49,-9 -62,-17l-13 52zm231 -274l0 51 -31 0 0 53 31 0 0 96c0,34 7,56 21,70 11,12 31,20 54,20 21,0 38,-2 48,-6l-1 -55c-5,1 -12,2 -21,2 -22,0 -29,-13 -29,-42l0 -85 52 0 0 -53 -52 0 0 -67 -72 16z"/>
  <path class="fil9" d="M19756 7357l0 -106 -208 0 0 -2 51 -43c80,-71 147,-144 147,-237 0,-100 -69,-173 -193,-173 -75,0 -139,26 -181,57l37 92c28,-22 70,-45 117,-45 64,0 91,35 91,80 -2,65 -60,126 -180,234l-72 65 0 78 391 0zm854 0l125 0 0 -551 -107 0 -146 67 21 97 105 -50 2 0 0 437zm697 0l0 -106 -208 0 0 -2 51 -43c80,-71 147,-144 147,-237 0,-100 -69,-173 -194,-173 -74,0 -139,26 -180,57l36 92c29,-22 71,-45 118,-45 64,0 91,35 91,80 -2,65 -60,126 -181,234l-71 65 0 78 391 0zm-1433 -211l73 0 0 -135c0,-7 1,-14 3,-18 5,-14 17,-28 37,-28 26,0 37,21 37,51l0 130 73 0 0 -139c0,-69 -36,-101 -84,-101 -39,0 -63,23 -73,38l-1 0 -3 -32 -64 0c1,20 2,45 2,74l0 160zm436 -340l0 127 -1 0c-11,-17 -33,-27 -62,-27 -56,0 -105,46 -105,125 0,73 45,121 100,121 31,0 59,-14 74,-40l1 0 3 34 65 0c-1,-16 -2,-43 -2,-70l0 -270 -73 0zm0 236c0,6 -1,11 -2,16 -4,21 -21,36 -42,36 -30,0 -50,-25 -50,-65 0,-37 17,-67 50,-67 23,0 39,16 43,36 1,4 1,9 1,13l0 31z"/>
  <path class="fil9" d="M24069 7322c32,21 92,39 163,39 140,0 226,-71 226,-169 0,-72 -54,-122 -120,-133l0 -2c68,-24 101,-70 101,-128 0,-76 -65,-137 -183,-137 -71,0 -137,20 -170,41l26 93c23,-13 70,-33 115,-33 54,0 81,25 81,58 0,47 -55,63 -98,63l-50 0 0 93 53 0c56,0 111,24 111,79 0,41 -34,73 -101,73 -53,0 -105,-22 -128,-33l-26 96zm1145 30l125 0 0 -551 -107 0 -146 68 21 96 105 -50 2 0 0 437zm697 0l0 -106 -208 0 0 -2 51 -42c80,-71 147,-145 147,-238 0,-100 -69,-172 -194,-172 -74,0 -139,25 -180,56l36 93c29,-22 71,-46 118,-46 64,0 91,36 91,80 -2,65 -60,127 -181,234l-71 65 0 78 391 0zm-1341 -210l73 0 0 -119c0,-6 0,-12 1,-17 5,-22 23,-37 50,-37 8,0 15,1 20,2l0 -68c-5,-1 -9,-1 -15,-1 -23,0 -52,14 -64,48l-2 0 -2 -43 -63 0c1,20 2,43 2,77l0 158zm333 -341l0 127 -1 0c-11,-16 -33,-26 -62,-26 -56,0 -105,45 -105,124 0,73 45,121 100,121 31,0 59,-14 74,-40l1 0 3 35 65 0c-1,-16 -2,-44 -2,-70l0 -271 -73 0zm0 236c0,6 -1,11 -2,17 -4,20 -21,35 -42,35 -30,0 -50,-25 -50,-65 0,-37 17,-67 50,-67 23,0 39,17 43,36 1,4 1,9 1,13l0 31z"/>
  <path class="fil8" d="M28176 5841l-78 0 0 152 -1 0 -31 -37c-52,-58 -106,-108 -174,-108 -73,0 -127,51 -127,142 0,55 19,102 42,132l68 -26c-17,-21 -34,-52 -34,-87 0,-46 26,-66 59,-66 47,1 93,44 171,132l48 52 57 0 0 -286zm-194 -133c0,-34 -24,-56 -57,-56 -34,0 -57,22 -57,55 0,33 24,56 57,56 33,0 57,-23 57,-55zm201 0c0,-34 -25,-56 -57,-56 -33,0 -57,22 -57,55 0,33 24,56 57,56 32,0 57,-23 57,-55zm-7 -207l0 -92 -404 0 0 79 50 106 71 -15 -37 -77 0 -1 320 0z"/>
  <path class="fil8" d="M28176 4379l-78 0 0 152 -1 0 -31 -37c-52,-59 -106,-108 -174,-108 -73,0 -127,51 -127,142 0,55 19,102 42,132l68 -26c-17,-22 -34,-52 -34,-87 0,-46 26,-66 59,-66 47,1 93,44 171,132l48 52 57 0 0 -286zm-194 -133c0,-34 -24,-56 -57,-56 -34,0 -57,22 -57,55 0,33 24,56 57,56 33,0 57,-23 57,-55zm201 0c0,-34 -25,-56 -57,-56 -33,0 -57,22 -57,55 0,33 24,56 57,56 32,0 57,-23 57,-55zm-7 -207l0 -92 -404 0 0 79 50 106 71 -15 -37 -77 0 -1 320 0z"/>
  <path class="fil8" d="M28176 2912l-78 0 0 153 -1 0 -31 -38c-52,-58 -106,-107 -174,-107 -73,0 -127,50 -127,142 0,54 19,101 42,132l68 -27c-17,-21 -34,-51 -34,-86 0,-47 26,-67 59,-67 47,2 93,44 171,133l48 52 57 0 0 -287zm-194 -133c0,-33 -24,-56 -57,-56 -34,1 -57,23 -57,56 0,33 24,55 57,55 33,0 57,-22 57,-55zm201 0c0,-33 -25,-56 -57,-56 -33,1 -57,23 -57,56 0,33 24,55 57,55 32,0 57,-22 57,-55zm-7 -207l0 -91 -404 0 0 78 50 107 71 -16 -37 -77 0 -1 320 0z"/>
  <path class="fil10" d="M11866 11725l-280 0 0 -158 297 0 0 -141 -470 0 0 761 486 0 0 -142 -313 0 0 -180 280 0 0 -140zm149 -299l0 424c0,243 113,349 305,349 198,0 317,-112 317,-347l0 -426 -172 0 0 438c0,134 -49,197 -140,197 -88,0 -137,-66 -137,-197l0 -438 -173 0zm771 761l170 0 0 -300 52 0c70,2 103,28 123,122 23,94 41,156 53,178l176 0c-15,-30 -38,-129 -62,-215 -19,-70 -48,-121 -101,-142l0 -3c65,-24 134,-91 134,-188 0,-70 -25,-123 -70,-159 -54,-43 -133,-60 -246,-60 -92,0 -174,7 -229,16l0 751zm170 -634c13,-2 36,-5 78,-5 79,1 126,36 126,106 0,66 -50,109 -136,109l-68 0 0 -210zm830 -140c-225,0 -371,171 -371,399 0,217 133,387 358,387 223,0 374,-151 374,-401 0,-210 -128,-385 -361,-385zm-5 137c119,0 184,117 184,254 0,148 -66,258 -183,258 -115,0 -185,-105 -185,-254 0,-147 68,-258 184,-258zm479 637l170 0 0 -272c16,2 36,3 59,3 101,0 188,-25 247,-80 45,-43 70,-106 70,-181 0,-74 -33,-137 -81,-176 -51,-40 -127,-61 -233,-61 -105,0 -179,7 -232,16l0 751zm170 -630c13,-4 36,-7 71,-7 86,0 135,42 135,112 0,78 -57,124 -148,124 -25,0 -43,-1 -58,-5l0 -224zm938 168l-280 0 0 -158 297 0 0 -141 -470 0 0 761 486 0 0 -142 -313 0 0 -180 280 0 0 -140zm545 266l59 196 185 0 -236 -761 -226 0 -232 761 178 0 54 -196 218 0zm-193 -128l45 -162c13,-44 24,-101 35,-146l2 0c12,45 25,101 39,146l47 162 -168 0zm696 324l0 -230c0,-124 -2,-231 -6,-331l3 -2c37,90 87,188 132,269l163 294 180 0 0 -761 -158 0 0 222c0,114 4,217 15,317l-4 0c-33,-85 -79,-180 -124,-260l-158 -279 -201 0 0 761 158 0zm849 0l171 0 0 -300 52 0c69,2 102,28 123,122 22,94 40,156 53,178l176 0c-15,-30 -39,-129 -62,-215 -20,-70 -49,-121 -102,-142l0 -3c65,-24 134,-91 134,-188 0,-70 -25,-123 -70,-159 -54,-43 -133,-60 -246,-60 -91,0 -174,7 -229,16l0 751zm171 -634c12,-2 36,-5 77,-5 79,1 127,36 127,106 0,66 -51,109 -137,109l-67 0 0 -210zm829 -140c-224,0 -370,171 -370,399 0,217 132,387 358,387 222,0 373,-151 373,-401 0,-210 -127,-385 -361,-385zm-4 137c118,0 184,117 184,254 0,148 -67,258 -183,258 -115,0 -185,-105 -185,-254 0,-147 67,-258 184,-258zm477 -124l0 424c0,243 113,349 305,349 198,0 317,-112 317,-347l0 -426 -172 0 0 438c0,134 -49,197 -140,197 -88,0 -137,-66 -137,-197l0 -438 -173 0zm771 761l475 0 0 -145 -302 0 0 -616 -173 0 0 761zm1029 -462l-280 0 0 -158 297 0 0 -141 -469 0 0 761 485 0 0 -142 -313 0 0 -180 280 0 0 -140zm303 462l172 0 0 -617 208 0 0 -144 -585 0 0 144 205 0 0 617zm643 0l173 0 0 -617 207 0 0 -144 -584 0 0 144 204 0 0 617zm924 -462l-280 0 0 -158 297 0 0 -141 -469 0 0 761 485 0 0 -142 -313 0 0 -180 280 0 0 -140z"/>
  <path class="fil11" d="M9946 8080c-674,1168 -1773,2012 -3075,2361 -1303,350 -2676,167 -3844,-507 -1167,-675 -2013,-1772 -2361,-3075 -349,-1302 -167,-2676 507,-3844 675,-1168 1773,-2013 3076,-2362 1302,-349 2675,-166 3843,508 1169,674 2013,1772 2362,3075 349,1302 167,2676 -508,3844z"/>
  <path class="fil12" d="M10562 5193l-1001 72c7,110 11,223 12,342 -1,111 -8,224 -22,339l999 97c13,-142 23,-279 26,-422 0,-149 -4,-290 -14,-428l0 0 0 0zm-403 -1644l-923 399c47,102 88,205 125,318 40,108 68,214 95,326l975 -242c-33,-136 -73,-271 -119,-404 -47,-138 -99,-270 -153,-397l0 0zm-927 -1419l-736 683c76,81 150,165 218,259 76,91 140,182 202,276l839 -548c-79,-121 -161,-238 -248,-346 -88,-115 -181,-221 -275,-324l0 0zm-1350 -1029l-466 890c102,55 198,110 295,171 98,63 189,126 282,195l606 -800c-111,-85 -231,-165 -349,-244 -122,-75 -245,-147 -368,-212l0 0 0 0zm-1617 -519l-139 995c110,15 222,33 334,60 111,28 221,59 328,94l308 -957c-134,-45 -271,-82 -408,-112 -141,-34 -279,-61 -423,-80l0 0zm-1695 50l199 983c113,-21 225,-41 340,-55 113,-10 224,-20 339,-23l-29 -1002c-141,4 -284,12 -428,30 -141,15 -281,35 -421,67l0 0zm-1578 611l515 861c94,-62 195,-116 296,-164 105,-51 208,-92 315,-137l-362 -933c-128,48 -262,103 -390,169 -127,64 -256,128 -374,204l0 0zm-1288 1098l773 644c71,-87 146,-171 226,-254 79,-81 166,-159 251,-232l-652 -760c-109,87 -214,185 -316,287 -96,103 -194,207 -282,315l0 0zm-850 1470l944 347c36,-107 80,-210 129,-314 50,-105 103,-206 159,-303l-871 -502c-69,119 -132,248 -196,377 -59,130 -115,263 -165,395l0 0 0 0zm-310 1663l1007 16c1,-110 4,-226 17,-342 10,-110 27,-223 48,-333l-988 -187c-23,141 -46,282 -58,424 -13,142 -22,285 -26,422l0 0 0 0zm263 1675l951 -320c-35,-105 -67,-214 -93,-326 -28,-110 -48,-224 -68,-336l-990 157c20,140 47,278 82,421 33,136 77,273 118,404l0 0 0 0zm805 1491l793 -617c-71,-89 -139,-182 -202,-276 -62,-95 -118,-191 -173,-292l-881 477c66,123 140,245 215,363 80,121 162,238 248,345l0 0 0 0zm1258 1142l538 -849c-93,-60 -189,-126 -281,-195 -88,-68 -176,-139 -257,-219l-676 745c105,98 212,186 327,274 114,87 230,164 349,244l0 0 0 0zm1562 651l228 -976c-112,-27 -217,-56 -331,-89 -107,-35 -213,-76 -320,-121l-386 927c129,53 265,105 401,147 133,45 272,82 408,112l0 0 0 0zm1696 97l-115 -999c-111,16 -227,23 -340,27 -115,3 -230,1 -339,-4l-56 1001c140,6 282,8 423,4 145,-1 283,-11 427,-29l0 0 0 0zm1625 -474l-437 -901c-101,47 -204,94 -313,137 -109,40 -214,75 -323,107l278 965c135,-39 275,-87 405,-139 136,-49 265,-107 390,-169l0 0zm1376 -989l-711 -704c-80,82 -161,157 -253,233 -84,73 -173,145 -264,209l583 816c117,-81 225,-168 335,-265 110,-91 213,-185 310,-289l0 0zm1268 -2186l-970 -267c-29,105 -65,213 -102,324 -42,110 -85,213 -132,313l907 428c61,-130 114,-259 165,-395 49,-131 91,-267 132,-403l0 0z"/>
  <path class="fil13" d="M5419 535l29 1002c113,-4 225,-3 337,4 118,9 229,19 341,36l143 -993c-141,-23 -284,-35 -427,-44 -140,-6 -283,-9 -423,-5l0 0 0 0zm1677 239l-308 957c110,31 216,71 322,117 103,43 207,92 306,143l466 -890c-129,-63 -252,-125 -386,-181 -133,-55 -264,-104 -400,-146l0 0 0 0zm1503 783l-606 800c89,68 175,139 260,214 85,82 164,158 243,242l736 -683c-100,-105 -197,-204 -307,-299 -103,-98 -216,-189 -326,-274l0 0 0 0zm1156 1243l-839 548c60,93 119,191 173,292 54,100 106,205 147,308l923 -399c-57,-133 -117,-259 -188,-386 -67,-123 -140,-245 -216,-363l0 0 0 0zm676 1550l-975 242c26,110 48,219 68,332 18,117 28,228 37,341l1001 -72c-10,-139 -25,-281 -50,-422 -20,-140 -51,-281 -81,-421l0 0zm119 1693l-999 -97c-10,111 -27,224 -48,334 -20,117 -45,224 -76,334l970 267c37,-139 68,-275 90,-416 29,-143 50,-280 63,-422l0 0 0 0zm-874 2371l-825 -572c-63,91 -133,184 -204,270 -78,89 -153,173 -229,251l711 704c99,-97 198,-205 288,-313 91,-113 176,-223 259,-340zm-1192 1207l-583 -816c-92,69 -188,132 -283,188 -104,57 -203,111 -302,162l437 901c126,-60 250,-127 374,-204 127,-71 240,-149 357,-231l0 0 0 0zm-1526 743l-278 -965c-110,33 -221,59 -330,81 -114,24 -225,41 -337,51l115 999c138,-17 278,-38 421,-67 139,-26 275,-59 409,-99zm-1680 191l56 -1001c-113,-7 -228,-20 -341,-37 -115,-14 -225,-35 -333,-60l-228 976c140,33 279,60 419,78 141,23 283,35 427,44l0 0 0 0zm-1655 -381l386 -927c-102,-43 -203,-90 -305,-145 -102,-53 -202,-110 -296,-169l-538 849c117,73 241,145 368,212 128,63 256,127 385,180zm-1429 -910l676 -745c-85,-75 -167,-154 -247,-237 -79,-83 -150,-173 -218,-259l-793 617c89,116 181,222 277,325 98,105 200,206 305,299l0 0zm-1045 -1332l881 -477c-53,-100 -101,-202 -148,-304 -46,-106 -85,-214 -124,-322l-951 320c43,136 96,267 154,397 56,133 121,261 188,386zm-542 -1608l990 -157c-16,-111 -32,-221 -39,-337 -10,-113 -13,-226 -7,-340l-1007 -16c-2,142 2,283 14,428 8,143 28,283 49,422l0 0zm25 -1694l984 185c21,-111 46,-224 77,-334 31,-109 66,-217 105,-323l-944 -347c-49,131 -90,267 -131,403 -37,138 -71,279 -91,416zm583 -1591l871 502c55,-95 116,-193 183,-288 65,-96 132,-184 208,-268l-773 -644c-90,109 -177,223 -261,340 -79,119 -156,234 -228,358l0 0 0 0zm1087 -1300l652 760c85,-73 174,-145 264,-209 94,-69 192,-130 289,-186l-515 -861c-119,69 -240,148 -357,231 -116,81 -227,172 -333,265l0 0 0 0zm1454 -869l362 933c108,-40 213,-75 322,-107 109,-33 221,-59 329,-81l-199 -983c-134,29 -274,59 -409,99 -141,40 -273,87 -405,139l0 0z"/>
  <path class="fil4" d="M10100 7679l-907 -428c-50,105 -102,202 -159,303 -57,99 -117,193 -183,288l825 572c77,-116 157,-234 228,-358 72,-124 136,-252 196,-377l0 0z"/>
  <path class="fil14" d="M9566 7913c48,29 79,31 88,14 2,-4 9,-6 13,-14 2,-4 1,-10 5,-18 -1,-6 -3,-13 -13,-24 -5,-8 -23,-24 -43,-35l-227 -132c-41,-23 -69,-29 -82,-25 -6,2 -15,7 -19,15 -5,8 -7,12 -5,18 -3,4 -3,4 -1,11 1,17 20,39 60,62l224 128 0 0 0 0zm-1718 -6375c43,-65 76,-104 101,-111 9,-5 19,-5 25,-6 18,-1 34,8 53,19 52,30 51,88 -1,170 -30,41 -66,74 -112,100 -17,11 -41,24 -58,35 -51,24 -91,56 -119,87l98 61 -27 38 -150 -92 20 -25c19,-33 68,-73 142,-116 0,0 15,-7 38,-20 23,-13 38,-21 41,-25 14,-7 25,-16 41,-34 13,-14 28,-32 37,-48 13,-20 20,-32 27,-44 3,-14 3,-24 2,-31 -2,-6 -4,-12 -8,-14 -4,-3 -10,-1 -14,-3 -18,1 -39,20 -68,61l-35 61 -49 -35 16 -28 0 0 0 0zm1220 6999c65,53 97,88 98,115 6,8 6,19 0,26 2,17 -8,33 -23,51 -36,44 -91,38 -165,-27 -40,-33 -67,-70 -87,-118 -9,-21 -18,-42 -24,-68 -20,-49 -46,-96 -75,-128l-74 90 -35 -31 113 -132 22 19c30,22 61,78 95,156 0,0 8,15 21,39 7,25 14,40 16,46 3,13 14,30 29,43 11,17 25,30 42,46 14,13 30,22 42,29 12,7 22,7 28,6 6,-2 13,-4 15,-8 2,-4 5,-8 7,-12 1,-20 -18,-42 -57,-75l-49 -44 35 -44 26 21 0 0 0 0zm30 -153c-39,20 -83,5 -137,-41 -39,-35 -64,-65 -74,-92 -5,-29 1,-58 23,-87 27,-27 50,-41 79,-36 27,0 63,22 102,55l18 15 -40 41 -20 -11c-27,-27 -47,-38 -59,-45 -14,-3 -27,0 -37,16 -13,14 -16,28 -6,39 7,15 24,34 57,59 27,26 51,41 65,44 21,1 36,-6 49,-21l13 -14 35 32 -13 14c-7,12 -12,20 -12,30 -5,18 14,40 50,71l0 0c30,22 49,34 64,37 10,0 22,-3 29,-15 11,-10 12,-20 4,-35 -3,-12 -18,-32 -44,-52l-8 -4 38 -47 12 6c35,31 56,59 63,84 7,25 1,54 -22,83 -26,29 -49,41 -80,40 -24,-4 -59,-18 -95,-50 -51,-40 -67,-76 -54,-116l0 0zm-590 707c7,15 -2,32 -24,51l0 0c-11,10 -23,13 -38,10 -26,1 -73,-31 -126,-95 -41,-49 -65,-80 -73,-94 -7,-15 -17,-26 -16,-36 -15,-31 -3,-61 28,-86 43,-38 88,-34 133,18l39 44 -48 37 -39 -45c-10,-10 -16,-19 -26,-20 -8,-4 -18,-5 -29,5 -8,6 -9,16 -10,26 2,6 9,22 19,33l107 119c11,17 21,28 35,31 8,5 18,5 23,-3 19,-15 16,-38 -7,-62l41 -34 172 200 -126 108 -39 -44 86 -73 -82 -90 0 0 0 0zm268 6l-33 30 -343 -401 43 -39 290 338c0,-11 3,-25 10,-37 5,-8 15,-17 26,-27l28 36c-11,10 -20,26 -26,44 -6,18 -1,37 5,56l0 0 0 0zm-944 493c18,32 29,49 41,56 6,9 14,13 24,14 4,2 10,1 19,-5 15,-7 18,-22 14,-34 -5,-19 -14,-40 -28,-70l-17 -25c-23,-36 -36,-59 -48,-66 -13,-13 -26,-10 -41,-2 -18,11 -29,21 -25,33l61 99 0 0zm117 -75c19,32 34,62 39,81 5,18 7,35 2,43 -4,24 -22,46 -48,63 -30,15 -55,22 -77,15 -18,-7 -40,-24 -62,-59 -6,-8 -17,-25 -29,-42l-109 -181c-37,-63 -53,-110 -47,-139 7,-22 23,-40 49,-57 25,-17 52,-17 74,-10 24,14 52,40 76,81l12 18 -53 34 -5 -9c-25,-41 -42,-67 -52,-67 -12,-7 -22,-8 -33,2 -8,5 -13,13 -14,24 4,13 13,34 27,64l46 68c3,-14 13,-23 31,-35 33,-18 59,-19 87,-3 22,18 51,51 79,93l7 16 0 0 0 0zm178 70l-38 21 -273 -450 56 -32 227 381c0,-11 7,-23 14,-35 9,-5 19,-15 28,-20l23 34c-14,13 -27,27 -32,46 -5,18 -10,37 -5,55l0 0 0 0zm-999 78l103 257 -34 -281 -69 24 0 0zm145 350l-57 26 -136 -356 -42 18 -20 -48 40 -14 -35 -95 52 -17 38 90 116 -44 14 40 30 400 0 0 0 0zm-904 256l-42 7 -104 -518 60 -13 89 435c5,-8 13,-13 25,-23 9,-6 21,-9 34,-12l8 41c-15,8 -30,15 -44,29 -13,13 -19,31 -26,54l0 0 0 0zm275 -236c18,80 21,130 7,154 -4,8 -13,13 -17,21 -11,10 -26,17 -52,24 -54,11 -93,-32 -112,-129 -9,-48 -8,-95 5,-146 7,-22 15,-44 22,-67 20,-52 27,-101 25,-145l-114 24 -6 -45 169 -36 5 30c10,37 0,100 -22,183 0,0 -3,16 -13,42 -5,28 -12,40 -14,44 -3,14 -2,31 -4,51 -1,21 2,44 7,62 3,24 6,37 13,52 4,12 9,21 13,23 8,4 15,3 19,5 6,-2 12,-3 14,-7 15,-14 16,-45 7,-93l-16 -67 62 -13 2 33 0 0 0 0zm-867 118c3,86 -4,135 -20,153 -4,9 -13,15 -21,20 -11,10 -30,15 -50,14 -60,2 -91,-48 -94,-145 1,-47 8,-97 35,-140 9,-27 19,-42 30,-62 30,-52 45,-97 50,-142l-115 3 -1 -43 174 -6 0 27c2,43 -16,102 -56,180 0,0 -7,12 -16,38 -14,24 -21,36 -23,40 -3,14 -12,31 -14,52 -1,20 -2,41 -3,61 -2,21 3,39 7,52 3,12 5,19 10,27 4,3 8,5 15,3 6,-2 10,1 16,-1 11,-10 19,-42 16,-91l2 -68 60 -3 -2 31 0 0 0 0zm-968 -59c-10,10 -29,16 -54,11l-2 5c-14,-4 -26,-10 -36,-21 -17,-26 -20,-76 -9,-159 10,-64 17,-103 22,-121 7,-12 10,-26 14,-34 16,-28 46,-43 86,-36 59,7 85,44 77,113l-12 57 -59 -7 12 -57c-1,-17 -1,-27 -4,-40 -2,-6 -10,-10 -24,-13 -11,-1 -17,1 -26,6 -4,8 -11,20 -13,41l-19 154c-7,22 -6,38 -1,47 4,12 12,17 22,18 20,1 34,-13 41,-51l50 13 -31 258 -169 -22 10 -53 108 14 17 -123 0 0zm314 49c-9,79 -26,128 -46,143 -8,6 -13,13 -21,19 -13,4 -36,7 -57,6 -57,-13 -81,-63 -67,-161 8,-50 26,-92 58,-138 15,-17 32,-35 41,-51 36,-43 61,-87 73,-128l-117 -19 9 -43 175 21 -6 28c-3,41 -35,98 -86,169 0,0 -7,12 -21,36 -18,21 -25,33 -31,35 -7,12 -17,28 -22,46 -8,23 -13,41 -14,62 -1,20 -6,38 -3,51 1,16 3,23 4,29 8,5 12,7 16,9 8,-2 11,1 18,-1 15,-7 27,-37 34,-86l8 -71 59 8 -4 36 0 0 0 0zm-1026 -40l-197 -65 13 -41c2,-4 11,-19 31,-45 21,-25 41,-52 59,-84 66,-94 120,-197 156,-298l64 21c-38,100 -98,204 -176,313 -21,36 -42,62 -57,80 -13,13 -20,25 -20,25l144 46 -17 48 0 0zm126 41l-42 -12 159 -506 59 18 -133 424c9,-6 19,-5 32,-9 10,1 24,4 34,5l-12 40c-15,-3 -33,2 -52,8 -19,5 -32,19 -45,32l0 0zm-836 -758l-127 240 194 -208 -67 -32 0 0 0 0zm-169 339l-58 -29 180 -338 -42 -19 25 -45 36 21 46 -90 49 28 -45 87 110 57 -19 43 -282 285 0 0zm321 -114c-22,-34 -21,-81 13,-142 24,-50 50,-77 73,-90 27,-17 58,-15 89,3 34,15 51,40 52,67 4,29 -6,67 -31,110l-8 23 -54 -26 10 -26c18,-33 26,-55 29,-70 3,-14 -7,-25 -19,-32 -16,-9 -32,-8 -43,2 -13,14 -26,33 -46,69 -19,33 -29,59 -27,76 1,16 12,33 28,42l18 6 -25 43 -12 -7c-12,-6 -26,-9 -33,-8 -20,-1 -40,25 -63,65l0 0c-14,34 -22,57 -22,67 3,12 12,23 24,30 12,7 23,8 33,-2 11,-10 27,-27 39,-57l7 -12 51 30 -3 14c-23,39 -45,69 -68,82 -28,11 -52,7 -86,-7 -32,-19 -52,-40 -53,-67 -4,-29 4,-62 24,-105 32,-55 65,-84 103,-78l0 0 0 0zm-707 -573c-25,33 -39,57 -42,71 -5,20 -1,32 15,41 5,9 15,10 27,16 12,1 18,-1 24,-2l67 -90c22,-29 34,-49 37,-63 5,-19 -2,-33 -18,-43 -8,-4 -16,-9 -26,-9 -11,-1 -32,18 -57,52l-27 27 0 0zm-8 161c-21,9 -43,1 -65,-16 -25,-20 -34,-42 -35,-69 6,-29 27,-64 61,-114l17 -21c35,-39 59,-64 86,-74 27,-11 56,-5 89,20 39,34 52,67 37,111 -8,23 -24,50 -48,85l-135 177c-36,44 -66,69 -94,80 -27,10 -55,4 -82,-22 -31,-22 -44,-47 -44,-73 3,-25 21,-57 52,-98l11 -10 45 32 -5 8c-29,41 -43,65 -43,75 -1,11 5,19 17,26 9,12 26,11 34,5 15,-8 33,-30 58,-63l44 -59 0 0zm-785 -411l-145 -153 35 -33c4,2 21,-9 51,-24 27,-11 61,-23 94,-42 103,-52 199,-114 281,-183l46 48c-86,67 -187,131 -310,188 -38,20 -69,35 -88,40 -17,11 -27,11 -29,14l103 108 -38 37 0 0 0 0zm304 64c-62,53 -106,83 -129,85 -10,0 -20,-1 -31,-2 -12,-6 -27,-17 -45,-32 -39,-43 -23,-98 47,-164 39,-31 80,-56 130,-69 25,-7 44,-12 69,-18 54,-12 101,-27 138,-54l-79 -84 35 -33 117 128 -21 19c-29,31 -84,52 -168,78 0,0 -17,1 -44,12 -25,8 -38,11 -44,13 -13,3 -31,8 -49,19 -17,12 -35,23 -50,41 -13,13 -24,23 -31,35 -7,12 -12,20 -16,28 1,6 3,12 7,14 8,5 12,7 16,10 14,3 38,-10 80,-45l48 -46 42 45 -22 20 0 0 0 0zm-656 -939c-7,-41 20,-79 79,-118 43,-29 79,-45 111,-43 31,2 54,16 73,47 25,31 25,57 16,84 -10,26 -36,54 -79,82l-24 13 -31 -50 21 -15c32,-19 51,-34 58,-46 7,-12 8,-22 -4,-39 -7,-15 -21,-18 -38,-17 -12,3 -41,14 -69,35 -34,23 -53,38 -62,54 -10,16 -9,32 7,53l7 14 -40 25 -10 -11c-7,-15 -15,-20 -23,-24 -16,-9 -49,-1 -85,26l0 0c-32,18 -47,36 -54,48 -3,14 -4,24 6,35 9,11 17,16 34,15 10,0 33,-13 59,-30l9 -5 35 51 -9 6c-41,24 -75,37 -102,38 -27,0 -50,-15 -69,-47 -21,-28 -25,-57 -16,-83 10,-26 32,-55 73,-81 51,-34 98,-39 127,-17l0 0 0 0zm-56 373l-20 -38 440 -289 33 51 -370 244c11,1 19,5 30,12 10,11 20,22 25,30l-34 23c-13,-13 -29,-22 -45,-32 -18,-5 -39,-6 -59,-1l0 0 0 0zm-204 -1139c-36,16 -62,33 -72,43 -11,9 -14,23 -11,36 8,15 13,23 21,28 6,8 16,9 20,11l102 -47c34,-12 51,-24 64,-37 11,-10 14,-24 3,-42 -4,-13 -5,-19 -13,-24 -12,-7 -41,-2 -79,18l-35 14 0 0 0 0zm-84 136c-25,-3 -40,-23 -51,-50 -17,-26 -13,-50 5,-72 17,-22 52,-45 105,-72l27 -11c50,-20 85,-26 109,-22 31,1 50,23 67,59 19,50 15,84 -20,117 -19,15 -45,32 -81,49l-205 89c-52,24 -94,32 -122,26 -29,-6 -50,-24 -62,-58 -17,-36 -17,-63 -4,-87 16,-18 44,-38 92,-58l15 -7 28 53 -13 3c-42,18 -68,35 -72,43 -5,8 -5,18 2,33 7,15 15,19 32,18 14,3 41,-8 78,-24l70 -29 0 0 0 0zm91 155c3,-41 35,-76 102,-102 44,-22 86,-30 115,-24 29,6 50,24 67,61 12,33 13,60 -1,84 -18,21 -48,46 -98,66l-21 9 -21 -55 21 -9c36,-16 58,-25 65,-37 11,-10 14,-24 6,-39 -7,-15 -19,-21 -34,-24 -17,1 -42,7 -78,24 -36,16 -59,29 -68,45 -13,14 -12,30 -3,51l7 15 -47 16 -7 -15c-4,-13 -13,-24 -17,-26 -16,-9 -45,-5 -88,13l-4 -2c-29,15 -49,30 -59,40 -7,13 -4,25 -1,38 4,12 16,19 32,18 10,1 33,-2 63,-17l12 -3 24 51 -15 7c-42,18 -73,26 -102,21 -28,-6 -51,-24 -63,-58 -12,-33 -13,-61 1,-85 14,-24 45,-49 87,-67 57,-25 98,-22 125,4l0 0zm-545 -842l-12 -44 513 -125 15 57 -430 108c8,5 16,10 23,24 6,9 13,24 15,30l-40 14c-7,-15 -19,-32 -32,-45 -16,-9 -32,-18 -52,-19l0 0 0 0zm46 186l-12 -45 513 -123 13 60 -427 105c7,5 13,13 23,24 5,9 14,24 13,34l-38 10c-8,-15 -19,-32 -35,-41 -14,-13 -30,-23 -50,-24l0 0zm-30 -1083c-50,4 -80,18 -81,39 -3,4 -1,10 1,16 -3,5 -1,12 1,18 8,4 16,9 24,14 15,2 35,4 62,3l255 -17 0 0c49,-4 77,-14 84,-27 3,-4 8,-12 8,-22 -1,-7 -3,-13 -1,-17 -4,-2 -5,-8 -10,-11 -10,-11 -39,-16 -88,-13l0 0 -255 17 0 0zm14 152c-50,4 -83,-5 -109,-14 -24,-14 -35,-42 -39,-82 -1,-43 5,-71 30,-88 20,-16 53,-28 102,-27l250 -20c50,-3 85,1 116,13 24,14 38,43 42,82 2,45 -8,71 -34,88 -22,19 -58,25 -107,28l-251 20 0 0 0 0zm125 105c11,-37 56,-59 126,-61 52,-7 91,-1 115,13 28,16 39,44 45,80 0,37 -10,63 -32,82 -19,16 -58,26 -107,29l-27 0 -3 -60 25 4c35,-6 60,-13 74,-16 14,-8 19,-15 14,-34 1,-21 -4,-29 -24,-35 -14,-2 -38,-7 -78,-2 -39,4 -64,10 -79,18 -15,7 -24,23 -21,46l1 16 -50 3 -2 -16c-1,-17 0,-27 -8,-31 -11,-18 -40,-23 -85,-18l-4 -2c-33,2 -54,11 -63,17 -12,9 -19,21 -19,31 1,17 7,25 22,28 12,7 36,11 69,9l13 -4 2 60 -12 3c-50,4 -86,-1 -107,-18 -20,-12 -37,-37 -39,-70 0,-37 6,-66 32,-84 21,-19 54,-27 99,-33 66,-4 104,12 123,44l0 0 0 1zm-26 -878c-1,-6 -13,-13 -28,-16 -11,-7 -32,-8 -56,-11 -21,-2 -35,-4 -48,-1 -10,-1 -20,-1 -26,0 -6,8 -12,10 -15,14 -2,4 0,10 -5,18 2,6 4,13 5,19 8,15 37,21 82,25 45,5 74,1 89,-7 4,-8 7,-12 7,-22 3,-4 -1,-16 -5,-19l0 0 0 0zm158 -5c-35,-4 -62,-3 -80,2 -15,7 -26,17 -27,27 -3,14 7,25 23,34 16,9 44,15 79,19l20 2c31,1 52,3 67,-5 13,-3 17,-11 20,-25 3,-14 0,-27 -8,-32 -6,-8 -14,-13 -31,-12 -14,-3 -29,-5 -43,-8l-20 -2 0 0 0 0zm-263 115c-45,-5 -76,-17 -98,-35 -17,-16 -24,-41 -24,-78 7,-39 21,-62 42,-71 19,-16 55,-22 100,-17 59,8 97,24 116,56 8,-12 29,-21 54,-27 29,-5 56,-5 87,-3l20 1c46,5 76,17 98,34 19,22 26,47 22,82 -2,31 -18,59 -38,75 -23,13 -59,19 -104,14 0,0 -11,-1 -35,-4 -21,-1 -43,-9 -65,-16 -24,-14 -45,-26 -52,-41 -20,26 -62,34 -123,30l0 0 0 0zm323 -1022c27,-28 75,-37 144,-19 48,18 83,33 100,59 20,22 24,51 16,83 -7,39 -28,58 -57,69 -25,6 -62,6 -112,-7l-22 -8 18 -58 22 7c36,11 60,14 73,11 14,3 21,-9 26,-27 8,-12 2,-31 -10,-38 -16,-9 -36,-21 -72,-31 -39,-6 -67,-12 -83,-11 -15,7 -29,21 -35,39l-5 18 -44 -15 3 -14c3,-14 3,-25 0,-37 -5,-20 -29,-34 -76,-45l0 0c-32,-8 -56,-11 -70,-8 -15,7 -19,15 -26,27 -3,15 0,28 12,35 10,11 33,18 63,30l10 1 -14 61 -12 -7c-47,-11 -79,-29 -94,-49 -20,-22 -24,-51 -16,-84 11,-36 28,-58 56,-69 26,-6 63,-6 109,5 59,18 92,42 96,82l0 0 0 0zm-176 371c-80,-19 -130,-42 -139,-63 -6,-9 -12,-18 -13,-24 -8,-15 -6,-35 1,-57 16,-56 72,-71 164,-45 47,11 90,37 127,74 18,16 35,31 51,51 38,37 79,66 117,83l31 -109 44 15 -46 164 -29 -6c-36,-10 -89,-46 -153,-104 0,0 -9,-11 -31,-29 -22,-18 -31,-28 -33,-35 -12,-7 -25,-20 -44,-25 -19,-11 -38,-17 -61,-24 -18,-5 -32,-8 -49,-7 -14,-3 -20,-1 -26,0 -7,2 -11,10 -14,14 2,6 0,10 2,16 7,15 31,29 79,46l66 17 -12 56 -32 -8 0 0 0 0zm344 -1094c-46,-21 -77,-23 -86,-7 -3,4 -5,8 -9,16 -3,4 -5,8 -3,14 -1,10 1,16 10,27 12,7 26,20 52,30l231 107 4 3c42,19 69,28 84,21 6,-2 11,-10 15,-18 5,-7 7,-11 6,-18 2,-4 2,-4 0,-10 -5,-19 -26,-37 -69,-56l0 0 -235 -109zm-58 137c-46,-22 -71,-42 -87,-61 -18,-26 -16,-57 6,-93 17,-38 38,-58 63,-65 27,0 66,6 108,26l225 108c46,22 76,44 91,63 17,27 15,58 -1,96 -17,38 -39,57 -68,62 -33,2 -66,-6 -112,-28l-225 -108 0 0 0 0zm-177 58l17 -39 479 223 -27 54 -402 -189c3,12 7,25 6,35 -3,14 -3,25 -10,36l-38 -16c5,-18 4,-35 3,-51 -5,-19 -14,-40 -28,-53l0 0 0 0zm591 -693c-7,-14 -2,-33 12,-56l0 0c11,-10 21,-20 34,-23 29,-5 78,13 145,62 54,36 87,62 98,73 13,13 19,21 25,30 20,28 19,59 -6,92 -35,49 -80,55 -134,19l-49 -34 34 -49 49 33c12,7 24,14 34,15 6,-2 19,-5 24,-13 6,-12 7,-22 1,-31 -1,-6 -11,-17 -27,-26l-128 -91c-16,-9 -33,-19 -43,-19 -8,-5 -20,-1 -25,7 -12,19 -3,41 27,64l-33 39 -219 -148 96 -137 45 32 -60 87 100 74 0 0zm771 -598l-197 -193 141 246 56 -53 0 0zm-275 -260l42 -45 273 264 29 -31 32 35 -28 31 73 69 -41 41 -72 -69 -87 88 -31 -28 -190 -355 0 0 0 0zm-130 383c-63,-57 -92,-101 -93,-128 -1,-6 -1,-16 4,-24 3,-15 13,-30 29,-48 39,-41 94,-25 162,41 33,34 62,77 75,128 9,21 16,46 21,65 15,57 33,100 60,136l82 -86 33 35 -122 127 -23 -24c-28,-26 -53,-83 -81,-164 0,0 -7,-15 -14,-40 -11,-27 -12,-44 -16,-46 -4,-13 -9,-31 -23,-45 -11,-18 -22,-35 -40,-50 -14,-13 -27,-27 -39,-33 -12,-7 -20,-12 -26,-10 -6,1 -13,3 -15,7 -2,4 -9,6 -7,12 -5,18 12,44 45,80l52 46 -45 43 -20 -22 1 0 0 0zm972 -605c-23,-34 -42,-56 -54,-63 -17,-10 -27,-11 -44,2 -9,5 -13,13 -20,25 -5,8 -7,12 -6,18l66 91c21,28 36,47 52,56 12,8 28,7 39,-4 15,-7 20,-15 18,-21 7,-12 -4,-39 -26,-74l-25 -30 0 0 0 0zm-154 -56c1,-22 13,-42 38,-59 26,-17 49,-19 76,-10 26,10 55,43 91,91l17 26c27,36 43,72 43,99 5,29 -9,54 -43,77 -39,30 -78,34 -116,7 -22,-18 -42,-39 -66,-71l-129 -181c-38,-47 -54,-83 -52,-114 -1,-27 13,-51 45,-77 27,-21 57,-25 79,-17 26,9 49,34 81,79l10 11 -47 36 -6 -8c-31,-39 -46,-58 -60,-61 -8,-5 -17,1 -32,8 -10,10 -15,18 -10,37 3,12 16,35 41,66l40 61 0 0 0 0zm-285 -70l37 -26 310 429 -51 34 -261 -358c-1,11 -2,21 -12,30 -7,12 -12,20 -23,30l-27 -37c14,-13 21,-25 26,-44 7,-22 6,-39 1,-58l0 0zm1085 -348c40,2 76,34 110,96 20,48 30,86 24,115 -6,29 -24,50 -57,69 -36,16 -62,17 -86,3 -22,-18 -47,-48 -69,-93l-9 -22 53 -27 9 21c17,36 30,60 42,67 9,11 20,12 37,0 19,-5 25,-17 24,-34 -3,-13 -14,-40 -26,-74 -16,-36 -36,-57 -48,-64 -13,-13 -30,-12 -51,-3l-15 7 -22 -44 15 -9c15,-7 24,-13 28,-21 9,-16 5,-45 -17,-89l0 0c-15,-30 -30,-49 -42,-56 -12,-7 -23,-8 -38,0 -8,5 -15,17 -16,28 1,16 6,35 21,65l3 12 -53 28 -3 -13c-22,-44 -31,-76 -25,-104 0,-27 21,-47 53,-66 30,-14 64,-17 88,-3 24,14 45,43 69,83 25,58 27,101 1,128l0 0 0 0zm-245 120c37,0 76,33 109,96 21,48 31,86 25,114 -5,29 -24,50 -56,69 -34,13 -63,18 -87,3 -21,-18 -46,-48 -69,-92l-9 -22 54 -27 9 21c16,36 32,55 41,66 10,11 22,8 37,0 19,-5 26,-17 25,-33 -1,-17 -14,-40 -27,-74 -16,-37 -35,-58 -45,-69 -16,-9 -32,-8 -53,1l-15 7 -23 -44 16 -8c15,-7 23,-13 28,-21 9,-16 4,-45 -18,-89l0 0c-15,-31 -30,-50 -42,-57 -12,-7 -23,-8 -37,0 -9,5 -16,17 -16,28 1,16 6,36 20,65l4 13 -53 28 -4 -13c-22,-44 -30,-77 -24,-105 -1,-27 21,-46 53,-65 30,-14 63,-17 86,-3 25,14 46,42 66,80 30,60 31,104 5,131l0 0 0 0zm726 -556l40 -14 148 507 -59 20 -124 -429c-5,8 -12,20 -23,29 -9,6 -21,9 -34,13l-10 -38c15,-7 28,-21 41,-35 9,-16 20,-32 21,-53l0 0 0 0zm986 -48c-8,-52 -23,-81 -43,-82 -3,3 -7,1 -13,3 -10,-1 -16,1 -19,5 -6,2 -11,10 -13,24 -7,12 -6,28 -2,57l28 256 0 0c3,50 14,78 26,84 8,5 18,6 24,4 12,1 18,-1 18,-1 6,-2 8,-6 15,-7 7,-12 12,-41 7,-87l2 -4 -30 -252 0 0zm-150 20c-3,-49 -3,-86 11,-110 11,-21 37,-38 76,-42 42,-8 73,4 88,24 19,22 32,56 37,102l26 249c3,49 3,87 -7,114 -13,23 -39,40 -81,48 -44,2 -72,-4 -89,-30 -19,-22 -29,-59 -35,-106l-26 -249 0 0 0 0zm-242 68c-12,-81 -9,-132 10,-154 4,-8 9,-16 15,-17 11,-10 30,-16 52,-19 59,-9 91,38 103,135 6,45 -1,95 -21,148 -11,19 -16,38 -24,60 -23,50 -37,101 -39,142l115 -13 5 45 -173 23 -4 -29c-4,-40 10,-100 42,-184 0,0 2,-14 12,-40 10,-26 17,-38 19,-42 3,-14 6,-29 10,-54 1,-21 0,-37 -3,-60 1,-20 -4,-39 -7,-52 -4,-12 -9,-21 -13,-23 -8,-5 -12,-7 -18,-5 -7,1 -13,3 -15,7 -15,7 -17,38 -10,90l5 67 -58 9 -3 -34 0 0 0 0zm1103 163l15 -273 -86 269 71 4zm17 -379l61 4 -20 377 42 2 -1 48 -44 2 -8 96 -53 1 6 -102 -124 -9 -2 -43 143 -376 0 0 0 0zm-243 -12l43 -2 -29 532 -62 -4 23 -445c-5,8 -13,14 -26,17 -12,4 -25,7 -39,4l2 -41c19,-5 36,-6 49,-21 17,-11 30,-24 39,-40l0 0 0 0zm1069 149l44 9 -118 518 -61 -14 100 -433c-9,6 -22,9 -32,8 -12,5 -27,1 -37,0l9 -43c20,2 33,-2 52,-7 17,-11 34,-22 43,-38l0 0 0 0zm-233 201c31,28 37,74 25,142 -14,50 -30,89 -52,108 -22,19 -51,23 -85,19 -38,-10 -59,-28 -70,-55 -11,-28 -11,-65 3,-115l7 -23 56 16 -4 25c-8,32 -14,61 -10,73 3,13 13,24 27,26 18,6 33,-2 40,-14 13,-13 20,-35 27,-74 10,-36 10,-64 5,-83 -1,-16 -17,-26 -35,-31l-19 -5 11 -47 15 3c18,5 28,6 37,0 18,-5 28,-31 39,-78l0 0c11,-37 12,-57 5,-72 -4,-13 -12,-17 -26,-20 -14,-3 -24,-4 -31,8 -11,10 -19,32 -27,64l-3 15 -60 -14 2 -14c11,-47 30,-79 49,-94 18,-22 47,-26 79,-18 39,6 62,24 72,52 11,27 13,60 2,108 -14,60 -39,94 -79,98l0 0 0 0zm839 160c13,-30 21,-53 24,-67 1,-11 1,-21 -3,-24 -1,-6 -10,-10 -18,-15 -15,-3 -27,0 -38,10 -13,14 -25,35 -37,65l-12 30c-14,34 -20,62 -23,76 1,17 7,26 27,37 18,5 28,6 39,-4l41 -108 0 0 0 0zm-132 -45c16,-39 32,-67 45,-81 14,-13 24,-23 33,-29 23,-13 50,-13 79,3 30,12 52,30 57,49 6,25 3,50 -8,87 -3,14 -12,30 -17,48l-83 197c-26,65 -55,107 -83,118 -21,9 -43,11 -75,-1 -27,-16 -45,-32 -49,-61 -7,-25 1,-58 18,-106l9 -16 54 20 -1 10c-19,42 -32,72 -25,81 3,12 11,17 23,24 12,7 20,1 29,-5 11,-9 16,-28 30,-62l31 -72c-12,4 -26,1 -44,-5 -35,-14 -54,-37 -56,-70 0,-26 8,-69 32,-119l1 -10 0 0 0 0zm833 454c46,-69 79,-109 104,-116 7,-1 17,-1 24,-2 16,-1 34,4 54,15 50,35 44,90 -4,174 -27,37 -64,75 -112,101 -17,11 -38,20 -59,29 -47,26 -86,57 -118,92l98 62 -26 38 -148 -97 18 -21c21,-36 68,-72 144,-119 0,0 15,-7 38,-20 23,-13 38,-21 40,-26 13,-3 26,-16 39,-30 17,-18 30,-31 41,-51 9,-16 19,-32 22,-46 6,-12 7,-22 5,-29 -1,-6 -5,-8 -9,-10 -4,-3 -8,-5 -12,-7 -21,-2 -42,24 -71,65l-32 56 -56 -32 20 -26 0 0 0 0zm552 686c23,-30 38,-47 46,-69 9,-16 5,-29 -4,-40 -8,-4 -22,-7 -39,4 -19,5 -41,24 -66,48l-15 17c-20,26 -30,42 -37,54 -2,15 1,27 13,34 9,11 17,16 30,12 6,-1 19,-5 31,-14 6,-12 17,-22 28,-33l13 -13 0 0 0 0zm90 -128c7,-2 19,-5 30,-15 11,-10 29,-21 44,-40 13,-13 23,-29 27,-37 11,-10 16,-18 14,-24 5,-8 1,-10 -1,-16 -2,-7 -6,-9 -14,-13 -5,-9 -9,-11 -16,-10 -14,-3 -40,14 -71,50 -29,31 -45,60 -44,76 2,6 3,13 11,17 6,9 12,7 20,12l0 0 0 0zm-24 -153c31,-35 57,-52 83,-59 23,-2 49,7 78,30 28,26 41,49 37,74 -3,24 -22,56 -50,88 -42,45 -77,68 -112,64 3,12 -4,34 -14,60 -11,20 -25,45 -43,67l-15 17c-35,33 -63,54 -87,57 -29,4 -51,-3 -81,-26 -23,-24 -34,-51 -34,-79 4,-24 16,-54 47,-90 2,-3 10,-9 26,-27 13,-13 32,-29 53,-44 23,-13 42,-18 60,-13 -6,-36 11,-74 52,-119l0 0 0 0zm-14 -178l32 28 -355 392 -44 -42 297 -329c-11,-1 -21,-1 -34,-8 -14,-3 -26,-10 -32,-19l29 -31c17,9 29,16 49,17 21,2 40,-3 58,-8l0 0 0 0zm632 897c26,-17 41,-35 48,-47 9,-6 9,-16 13,-20 0,-10 -1,-16 -10,-21 -8,-15 -22,-18 -41,-13 -14,8 -32,19 -60,40l-21 19c-35,24 -52,45 -63,55 -10,16 -7,28 5,45 14,14 26,20 34,15l95 -73 0 0zm-94 -103c30,-25 56,-42 74,-47 22,-9 34,-12 44,-12 27,0 52,14 69,39 21,28 27,53 26,74 -7,22 -21,47 -45,70 -13,14 -29,21 -44,39l-168 126c-56,48 -98,66 -128,65 -25,-4 -45,-15 -64,-37 -22,-28 -25,-52 -15,-78 4,-24 31,-52 70,-82l13 -14 36 48 -8 5c-37,27 -55,48 -62,60 0,10 3,24 9,33 9,10 20,11 32,8 10,0 30,-15 56,-33l63 -54c-15,-3 -27,-9 -38,-27 -25,-30 -29,-59 -16,-83 16,-29 45,-60 85,-90l11 -10 0 0 0 0zm-166 -175c65,-48 112,-74 137,-70 10,0 17,-1 25,3 14,3 27,16 43,36 38,43 19,97 -59,158 -40,30 -86,46 -136,59 -23,3 -46,6 -68,9 -60,8 -106,24 -144,44l71 90 -33 29 -111 -139 26 -17c30,-25 89,-44 173,-60 0,0 13,-3 42,-8 29,-4 41,-7 48,-9 12,-3 31,-8 46,-16 21,-9 38,-20 55,-31 16,-18 27,-29 38,-38 7,-12 12,-20 14,-24 1,-10 -3,-13 -5,-19 -4,-2 -6,-8 -12,-7 -16,-9 -47,6 -85,36l-52 45 -37 -48 24 -23 0 0 0 0zm678 653l101 184 -39 22c-6,1 -22,3 -59,9 -31,8 -64,10 -95,19 -118,27 -223,62 -323,106l-32 -56c103,-47 214,-84 346,-110 41,-7 74,-9 93,-14 23,-3 33,-3 33,-3l-72 -131 47 -26 0 0 0 0zm65 1123c34,-13 57,-26 74,-37 11,-10 18,-22 15,-34 -4,-13 -16,-20 -36,-21 -21,-1 -50,3 -81,12l-22 9c-27,10 -49,19 -59,29 -5,8 -12,20 -4,35 3,12 9,21 16,25 11,1 21,2 37,1 13,-4 28,-11 41,-14l19 -5 0 0 0 0zm142 -72c8,4 18,5 36,4 10,1 29,-4 54,-11 19,-5 34,-12 42,-18 13,-3 21,-9 24,-13 4,-8 6,-12 5,-18 2,-4 0,-12 -1,-18 -6,-8 -8,-15 -12,-17 -12,-7 -38,-6 -84,9 -48,16 -71,30 -76,48 -3,4 -7,12 -1,21 1,6 7,15 13,13l0 0 0 0zm51 -142c46,-16 79,-18 101,-10 26,9 41,29 54,62 12,35 10,66 -5,83 -14,24 -44,39 -86,57 -58,19 -100,17 -126,-3 -9,15 -18,31 -42,44 -21,20 -45,33 -74,37l-21 10c-41,14 -80,18 -102,10 -26,-9 -42,-30 -54,-64 -12,-33 -13,-60 5,-81 14,-24 42,-45 86,-57 2,-4 14,-7 33,-13 22,-9 45,-12 72,-13 27,0 45,5 58,19 11,-37 41,-62 101,-81l0 0zm-132 -225c78,-24 131,-31 153,-23 8,4 16,9 24,13 9,11 21,28 30,49 17,53 -19,97 -112,128 -46,16 -96,19 -148,10 -21,-1 -44,-9 -69,-12 -52,-10 -104,-13 -145,-5l39 107 -47 16 -54 -164 27 -10c39,-11 98,-14 186,1 0,0 14,2 40,6 30,2 44,5 48,7 15,3 31,2 54,-1 16,-1 39,-4 60,-13 19,-6 35,-13 46,-23 12,-3 17,-11 21,-19 3,-4 5,-8 3,-14 -1,-6 -5,-9 -7,-15 -16,-9 -46,-5 -96,9l-61 23 -19 -59 27 -11 0 0 0 0zm264 973c82,-12 135,-13 157,5 8,5 16,9 17,15 10,11 21,28 24,51 9,59 -36,92 -132,110 -47,6 -98,3 -146,-14 -22,-8 -44,-15 -64,-27 -53,-20 -102,-28 -143,-30l13 115 -41 8 -27 -176 29 -4c36,-6 99,4 178,33 4,2 14,3 41,13 26,10 44,15 48,17 14,3 28,7 49,8 20,1 44,-1 60,-2 23,-4 42,-9 55,-12 10,-10 17,-12 25,-17 3,-4 1,-11 -1,-17 2,-4 1,-10 -3,-12 -11,-18 -42,-19 -90,-10l-72 12 -6 -62 29 -4 0 0 0 0zm155 -167l3 40 -521 82 -7 -63 439 -66c-8,-5 -18,-15 -23,-24 -9,-15 -12,-27 -12,-38l41 -3c7,14 14,29 28,42 14,14 29,23 52,30l0 0zm-108 1045c12,7 19,22 17,53l0 0c4,13 -3,25 -14,35 -19,21 -73,32 -157,31 -65,1 -106,-2 -120,-5 -14,-3 -28,-6 -36,-10 -30,-12 -47,-38 -45,-80 -2,-60 32,-93 100,-91l59 2 -2 57 -61 3c-14,-3 -26,0 -35,6 -6,2 -11,10 -14,24 4,13 5,20 17,26 8,5 18,6 39,7l153 3c27,-1 39,-4 52,-7 8,-6 13,-14 13,-25 2,-21 -18,-32 -55,-32l5 -55 260 1 -2 169 -57 -1 4 -110 -121 -1 0 0 0 0zm-68 -188c-21,37 -63,55 -138,55 -47,-1 -90,-10 -111,-28 -22,-18 -39,-44 -38,-81 4,-35 16,-65 39,-78 24,-13 61,-23 113,-20l23 -3 0 64 -25 -3c-37,-1 -64,0 -79,7 -8,6 -15,18 -18,32 1,16 8,31 20,38 19,5 43,9 81,9 41,3 66,-4 81,-12 15,-7 24,-23 25,-43l-1 -17 51 3 -3 15c1,16 7,25 9,31 11,17 38,27 85,28l0 0c37,0 60,-3 71,-13 11,-9 15,-17 18,-31 -3,-13 -6,-25 -21,-28 -11,-7 -34,-15 -67,-13l-10 0 -2 -60 16 -1c47,1 80,9 101,27 24,13 35,41 35,78 -5,34 -14,60 -38,74 -21,20 -57,26 -104,25 -65,0 -103,-16 -113,-55l0 0 0 0zm-80 896c-25,34 -74,43 -141,31 -53,-9 -87,-24 -110,-48 -20,-21 -27,-46 -20,-86 4,-35 25,-60 50,-67 23,-13 60,-13 113,-4l25 4 -12 57 -24 -4c-39,-6 -64,-10 -76,-6 -13,3 -24,13 -25,33 -3,15 1,28 17,37 11,7 38,17 76,23 37,11 63,10 79,3 19,-5 26,-17 33,-39l3 -15 49 8 -5 18c-3,14 -3,24 2,33 7,15 31,28 80,35l0 0c34,9 60,8 69,2 12,-3 19,-15 22,-29 3,-14 -2,-23 -12,-34 -12,-7 -30,-12 -64,-20l-14 -3 12 -58 14 3c46,5 80,19 99,41 20,23 26,48 18,80 -6,39 -24,60 -47,73 -24,13 -61,13 -107,9 -65,-17 -100,-37 -104,-77l0 0zm-364 834c34,14 62,20 79,19 16,-1 25,-7 35,-23 1,-10 4,-24 2,-31 0,-10 -5,-18 -8,-25l-100 -37c-37,-10 -59,-17 -75,-16 -17,1 -29,10 -34,28 -7,12 -5,19 -6,29 4,12 28,26 69,39l38 17zm155 -38c11,17 14,39 2,70 -10,26 -29,41 -59,46 -25,7 -68,-3 -120,-22l-30 -12c-46,-15 -77,-34 -94,-59 -20,-22 -20,-49 -7,-89 17,-49 49,-68 93,-70 27,0 59,8 93,22l210 80c53,19 89,40 109,62 13,23 17,52 3,86 -11,38 -32,57 -58,64 -23,2 -62,-4 -106,-19l-18 -5 22 -58 7 5c45,16 73,22 79,20 13,-3 18,-12 27,-28 4,-14 -1,-27 -13,-34 -9,-10 -33,-24 -73,-37l-67 -22 0 0 0 0zm150 -280c80,29 124,54 137,78 5,8 7,15 6,25 4,12 2,33 -5,55 -20,53 -74,64 -167,31 -45,-15 -86,-44 -121,-85 -15,-20 -33,-35 -44,-52 -39,-44 -74,-75 -114,-98l-35 107 -45 -15 57 -164 30 12c37,11 84,49 143,115 0,0 9,11 29,32 19,22 28,33 32,35 10,11 24,24 39,33 20,12 36,21 58,29 20,5 38,10 48,11 14,2 24,3 31,1 2,-4 11,-9 9,-16 2,-3 4,-7 3,-14 -1,-16 -29,-32 -77,-50l-62 -24 18 -59 30 12 0 0 0 1zm-314 840c40,23 65,43 76,70 13,24 11,54 -9,91 -21,36 -47,53 -73,53 -23,3 -60,-7 -100,-30l-220 -127c-40,-23 -67,-50 -84,-75 -13,-24 -11,-55 10,-91 20,-36 46,-53 73,-53 29,-5 64,10 108,35l219 127 0 0z"/>
  <g id="_1202723680">
   <polygon class="fil15" points="5423,1538 5394,536 5443,534 5473,1537 "/>
   <polygon class="fil15" points="6101,1574 6240,579 6289,586 6151,1581 "/>
   <polygon class="fil15" points="6765,1724 7072,767 7120,782 6812,1739 "/>
   <polygon class="fil15" points="7394,1980 7860,1089 7904,1112 7438,2003 "/>
   <polygon class="fil15" points="7973,2342 8579,1542 8618,1572 8012,2372 "/>
   <polygon class="fil15" points="8479,2794 9218,2115 9251,2151 8513,2831 "/>
   <polygon class="fil15" points="8903,3327 9742,2779 9769,2820 8930,3369 "/>
   <polygon class="fil15" points="9226,3925 10150,3530 10170,3576 9246,3971 "/>
   <polygon class="fil15" points="9450,4567 10425,4326 10437,4375 9462,4616 "/>
   <polygon class="fil15" points="9560,5240 10560,5168 10563,5218 9563,5290 "/>
   <polygon class="fil15" points="9554,5922 10553,6018 10548,6068 9549,5971 "/>
   <polygon class="fil15" points="9433,6590 10403,6857 10390,6905 9420,6638 "/>
   <polygon class="fil15" points="9203,7229 10111,7657 10090,7702 9182,7274 "/>
   <polygon class="fil15" points="8865,7822 9690,8393 9662,8434 8837,7863 "/>
   <polygon class="fil15" points="8435,8345 9147,9050 9112,9085 8400,8380 "/>
   <polygon class="fil15" points="7921,8790 8504,9607 8464,9635 7881,8819 "/>
   <polygon class="fil15" points="7339,9144 7776,10045 7731,10067 7294,9166 "/>
   <polygon class="fil15" points="6700,9392 6978,10357 6931,10371 6652,9406 "/>
   <polygon class="fil15" points="6037,9528 6153,10527 6103,10532 5988,9533 "/>
   <polygon class="fil15" points="5359,9555 5303,10556 5253,10553 5309,9552 "/>
   <polygon class="fil15" points="4684,9463 4456,10439 4407,10427 4635,9452 "/>
   <polygon class="fil15" points="4032,9257 3649,10184 3603,10165 3986,9238 "/>
   <polygon class="fil15" points="3429,8946 2891,9795 2849,9769 3387,8919 "/>
   <polygon class="fil15" points="2888,8536 2213,9281 2176,9248 2851,8503 "/>
   <polygon class="fil15" points="2421,8043 1628,8660 1597,8620 2390,8003 "/>
   <polygon class="fil15" points="2042,7477 1161,7953 1137,7910 2019,7433 "/>
   <polygon class="fil15" points="1766,6853 815,7172 799,7125 1750,6805 "/>
   <polygon class="fil15" points="1601,6191 611,6349 603,6300 1593,6142 "/>
   <polygon class="fil15" points="1551,5515 544,5499 544,5449 1551,5465 "/>
   <polygon class="fil15" points="1612,4839 634,4654 644,4605 1621,4790 "/>
   <polygon class="fil15" points="1790,4182 846,3834 863,3787 1807,4135 "/>
   <polygon class="fil15" points="2073,3563 1203,3060 1228,3017 2098,3520 "/>
   <polygon class="fil15" points="2461,3004 1688,2360 1720,2322 2493,2965 "/>
   <polygon class="fil15" points="2935,2515 2283,1755 2321,1723 2973,2483 "/>
   <polygon class="fil15" points="3486,2117 2971,1255 3014,1230 3528,2091 "/>
   <polygon class="fil15" points="4095,1811 3733,879 3779,861 4141,1794 "/>
   <polygon class="fil15" points="4745,1619 4546,636 4595,627 4794,1610 "/>
  </g>
  <path class="fil5" d="M8993 7530c-528,914 -1388,1575 -2407,1847 -1020,274 -2094,131 -3008,-397 -914,-528 -1576,-1387 -1849,-2406 -273,-1019 -130,-2095 398,-3009 527,-914 1387,-1575 2407,-1848 1019,-273 2094,-130 3008,398 914,527 1575,1386 1848,2406 273,1019 131,2095 -397,3009z"/>
  <path class="fil1" d="M5552 3574c247,0 447,200 447,446 0,187 -115,347 -277,413l0 942 941 0c67,-163 227,-277 413,-277 247,0 446,200 446,446 0,247 -199,446 -446,446 -186,0 -346,-114 -413,-277l-941 0 0 942c162,66 277,226 277,413 0,246 -200,446 -447,446 -246,0 -446,-200 -446,-446 0,-187 115,-347 277,-413l0 -942 -941 0c-67,163 -227,277 -413,277 -247,0 -447,-199 -447,-446 0,-246 200,-446 447,-446 186,0 346,114 413,277l941 0 0 -942c-162,-66 -277,-226 -277,-413 0,-246 200,-446 446,-446z"/>
  <g id="_1202747200">
   <path class="fil8" d="M9786 9024c8,21 115,44 115,-81 0,-67 -36,-88 -99,-46 -2,15 -18,122 -16,127zm-30 -259l66 -7 6 7 -19 92 -7 27c17,-16 37,-40 79,-40 27,0 42,19 53,34 48,67 -16,189 -125,191 -27,0 -47,-7 -66,-20l39 -258 -33 -6 7 -20zm191 330c53,26 64,12 86,-33l-40 -185 -26 -7 7 -19 99 0 -7 19 -26 7 26 132 73 -132 -33 -7 6 -19 86 0 -6 19 -27 7 -105 198c-16,29 -36,50 -47,60 -36,32 -69,16 -79,0 -6,-10 6,-33 13,-40z"/>
   <g>
    <path class="fil8" d="M10493 8913c0,9 -7,17 -17,17 -9,0 -17,-8 -17,-17l0 -758 -9 0c-15,0 -28,5 -37,15 -10,9 -16,22 -16,37l0 773c0,14 6,27 16,37 9,9 22,15 37,15l900 0c14,0 27,-6 36,-15 10,-10 16,-23 16,-37l0 -945c0,-15 -6,-28 -15,-37 -10,-10 -23,-16 -37,-16l-804 0c-15,0 -28,6 -37,16 -10,9 -16,22 -16,37l0 878zm-34 -793l0 -85c0,-24 10,-46 26,-61 15,-16 37,-26 61,-26l804 0c23,0 45,10 61,26 15,15 25,37 25,61l0 945c0,24 -10,45 -25,61 -16,16 -38,25 -61,25l-900 0c-24,0 -46,-9 -61,-25 -16,-16 -26,-37 -26,-61l0 -773c0,-24 10,-46 26,-61 15,-16 37,-26 61,-26l9 0z"/>
    <path class="fil8" d="M10982 8118c-5,0 -10,-4 -10,-10 0,-5 5,-10 10,-10l324 0c5,0 10,5 10,10 0,6 -5,10 -10,10l-324 0z"/>
    <path class="fil8" d="M10982 8239c-5,0 -10,-5 -10,-10 0,-6 5,-10 10,-10l324 0c5,0 10,4 10,10 0,5 -5,10 -10,10l-324 0z"/>
    <path class="fil8" d="M10982 8359c-5,0 -10,-4 -10,-10 0,-5 5,-10 10,-10l324 0c5,0 10,5 10,10 0,6 -5,10 -10,10l-324 0z"/>
    <path class="fil8" d="M10614 8472c-5,0 -10,-5 -10,-10 0,-6 5,-10 10,-10l692 0c5,0 10,4 10,10 0,5 -5,10 -10,10l-692 0z"/>
    <path class="fil8" d="M10614 8585c-5,0 -10,-5 -10,-10 0,-6 5,-10 10,-10l692 0c5,0 10,4 10,10 0,5 -5,10 -10,10l-692 0z"/>
    <path class="fil8" d="M10614 8697c-5,0 -10,-4 -10,-10 0,-5 5,-10 10,-10l293 0c6,0 10,5 10,10 0,6 -4,10 -10,10l-293 0z"/>
    <path class="fil8" d="M11013 8697c-5,0 -10,-4 -10,-10 0,-5 5,-10 10,-10l293 0c5,0 10,5 10,10 0,6 -5,10 -10,10l-293 0z"/>
    <path class="fil8" d="M10614 8810c-5,0 -10,-4 -10,-10 0,-5 5,-10 10,-10l293 0c6,0 10,5 10,10 0,6 -4,10 -10,10l-293 0z"/>
    <path class="fil8" d="M11013 8810c-5,0 -10,-4 -10,-10 0,-5 5,-10 10,-10l293 0c5,0 10,5 10,10 0,6 -5,10 -10,10l-293 0z"/>
    <path class="fil8" d="M10614 8923c-5,0 -10,-5 -10,-10 0,-6 5,-10 10,-10l293 0c6,0 10,4 10,10 0,5 -4,10 -10,10l-293 0z"/>
    <path class="fil8" d="M11013 8923c-5,0 -10,-5 -10,-10 0,-6 5,-10 10,-10l293 0c5,0 10,4 10,10 0,5 -5,10 -10,10l-293 0z"/>
    <path class="fil16" d="M10637 8094l224 0c12,0 23,10 23,23l0 224c0,12 -11,22 -23,22l-224 0c-13,0 -23,-10 -23,-22l0 -224c0,-13 10,-23 23,-23zm218 29l-212 0 0 212 212 0 0 -212z"/>
    <path class="fil8" d="M11517 8362l3 -20 92 0 170 257 0 -226 -49 -11 3 -20 126 0 -4 20 -44 10 0 299 -40 8 -175 -262 0 224 48 9 -3 21 -126 0 3 -20 44 -12 0 -263 -48 -14zm364 0l3 -20 263 0 -9 85 -23 -4 -10 -56 -125 0 0 125 77 0 11 -31 25 -4 -9 103 -22 3 -9 -46 -73 0 0 129 131 0 26 -61 22 3 -8 83 -268 0 2 -20 44 -12 0 -266 -48 -11zm289 0l3 -20 136 0 -4 20 -44 10 64 227 74 -244 46 -6 66 246 69 -222 -48 -11 3 -20 119 0 -3 20 -33 10 -96 298 -41 7 -69 -257 -76 250 -43 7 -86 -304 -37 -11zm476 277l3 -71 27 4 10 50c5,8 13,15 23,20 9,6 20,9 32,9 10,0 19,-2 28,-6 10,-3 17,-10 24,-18 7,-9 10,-19 10,-32 0,-9 -2,-18 -8,-25 -5,-8 -13,-15 -22,-21 -8,-6 -18,-11 -29,-17 -11,-6 -22,-12 -33,-18 -10,-7 -20,-13 -29,-21 -9,-7 -16,-17 -22,-28 -5,-11 -8,-23 -8,-36 0,-19 5,-36 15,-51 10,-14 23,-25 38,-32 15,-7 32,-10 50,-10 28,0 53,8 74,26l-5 75 -27 -4 -6 -50c-3,-6 -9,-11 -18,-17 -8,-5 -18,-8 -27,-8 -14,0 -26,4 -35,13 -9,8 -13,20 -13,37 0,10 3,20 8,28 6,8 13,16 22,22 9,6 19,12 30,17 11,6 22,12 33,18 11,7 21,13 31,21 9,7 16,16 22,27 5,11 8,23 8,36 0,20 -6,38 -17,53 -11,16 -26,27 -43,35 -18,8 -37,12 -58,12 -18,0 -35,-3 -51,-11 -16,-7 -28,-16 -37,-27z"/>
    <path class="fil8" d="M11713 8027c1,0 2,0 3,0 8,0 20,-9 20,-31 0,-32 -35,-47 -88,-47 -54,0 -132,33 -132,135 0,100 74,134 125,134 46,0 91,-15 91,-43 0,-11 -7,-19 -17,-19 -17,31 -40,42 -76,42 -39,0 -92,-37 -92,-115 0,-80 60,-114 100,-114 38,0 66,11 66,58zm265 173c-7,0 -19,-7 -25,-22 0,0 -63,-173 -68,-188 -8,-22 -18,-42 -42,-42 -14,0 -20,8 -20,12 3,0 14,2 14,19 0,21 -32,86 -68,157 -10,20 -21,41 -21,57 0,7 2,25 20,25 15,0 22,-7 22,-9 -6,-1 -10,-9 -10,-23 0,-14 12,-42 21,-60l104 0c3,8 14,41 19,55 1,3 2,6 2,9 0,5 -4,10 -12,10l-9 0 0 11 82 0 0 -11 -9 0zm-167 -96c29,-59 41,-93 48,-108 13,36 25,73 39,108l-87 0zm263 -9c62,26 63,45 63,58 0,12 -8,45 -59,45 -64,0 -69,-61 -69,-61 0,0 -20,4 -20,28 0,21 25,52 84,52 58,0 92,-32 92,-67 0,-83 -139,-73 -139,-139 0,-25 23,-45 52,-45 32,0 53,16 53,63 11,0 26,-6 26,-30 0,-26 -26,-51 -79,-51 -52,0 -80,36 -80,65 0,27 8,53 76,82zm184 -114c0,-9 7,-16 16,-16l13 0 0 -11 -87 0 0 11 11 0c11,0 19,5 19,16l0 198c0,12 -6,21 -19,21l-10 0 0 11 86 0 0 -11 -11 0c-8,0 -18,-7 -18,-21l0 -198zm92 197c0,11 -7,22 -21,22l-9 0 0 11 90 0 0 -11 -12 0c-19,0 -23,-15 -23,-24l0 -178c0,0 132,191 142,204 6,9 15,12 21,12 7,0 18,0 24,-8 -3,0 -16,-9 -16,-29l0 -193c0,-8 4,-19 19,-19l10 0 0 -11 -84 0 0 11 13 0c12,0 17,9 17,22l0 175 -120 -177c-12,-19 -21,-31 -50,-31l-33 0 0 11 7 0c21,0 25,12 25,22l0 191zm376 40c81,0 126,-63 126,-135 0,-74 -43,-135 -127,-135 -79,0 -126,58 -126,135 0,75 55,135 127,135zm-96 -135c1,-58 28,-117 94,-117 63,0 97,52 97,117 0,65 -35,116 -94,116 -62,-1 -97,-55 -97,-116z"/>
    <path class="fil16" d="M11584 9066l490 0c37,0 67,-30 67,-67l0 -154c0,-37 -30,-67 -67,-67l-490 0c-37,0 -67,30 -67,67l0 154c0,37 30,67 67,67z"/>
    <path class="fil8" d="M11680 8821c3,4 4,8 4,15l0 122c0,4 1,7 3,10l0 0c2,2 4,4 8,4l7 0 0 0 0 1 0 6 0 0 0 0 -17 0c-5,0 -10,-1 -14,-5 -3,-3 -5,-8 -5,-14l0 -43c0,-12 -3,-22 -9,-28 -6,-7 -14,-11 -25,-11 -11,0 -20,6 -26,13 -7,9 -11,22 -11,35 0,12 4,24 10,32 6,8 15,13 25,13 4,0 8,-1 12,-3 5,-2 8,-5 9,-6l1 -1 0 1c0,0 4,4 4,8 0,6 -5,9 -12,10 -5,2 -12,2 -16,2 -14,0 -27,-6 -36,-16 -9,-11 -15,-25 -15,-41 0,-15 5,-31 15,-43 9,-9 22,-15 40,-15 8,0 15,1 22,4 5,3 9,6 12,9l0 -43c0,-3 0,-6 -1,-9 -2,-2 -5,-4 -10,-4l-6 0 -1 0 0 -1 0 -6 0 -1 1 0 18 0c6,0 10,2 13,5zm131 147c2,2 5,4 9,4l3 0 1 0 0 1 0 6 0 0 -1 0 -12 0c-9,0 -14,-3 -17,-7 -2,-4 -2,-9 -2,-12l0 -35 -14 0c-14,0 -25,2 -33,6 -7,4 -11,10 -11,18 0,7 2,12 6,15 4,4 10,6 15,6 15,0 21,-10 21,-10l0 0 1 0c0,0 2,1 4,3 1,1 1,2 1,4 0,3 0,6 -4,9 -4,3 -11,5 -24,5 -8,0 -19,-3 -28,-9 -6,-5 -10,-13 -10,-23 0,-14 7,-23 18,-28 12,-6 27,-7 44,-7l14 0 0 -10c0,-5 -1,-13 -4,-18 -3,-6 -9,-11 -22,-11 -9,0 -15,3 -20,7 -6,5 -8,13 -8,19l0 1 0 0c0,0 -13,-1 -13,-13 0,-8 5,-14 12,-18 8,-5 18,-7 29,-7 13,0 24,2 31,8 8,7 12,17 12,32l0 51c0,6 0,10 2,13zm57 -143c2,2 3,4 3,8 0,3 -1,5 -3,7 -2,2 -5,3 -9,3 -3,0 -6,-1 -8,-3l0 0c-2,-2 -4,-4 -4,-7 0,-4 2,-6 4,-8 2,-2 5,-3 8,-3 4,0 7,1 9,3zm4 143c2,3 5,4 8,4l5 0 1 0 0 1 0 6 0 1 -1 0 -51 0 0 0 0 -1 0 -6 0 -1 0 0 6 0c3,0 6,-1 8,-3 2,-2 3,-5 3,-9l0 -72c0,-3 0,-6 -2,-8 -2,-2 -5,-3 -8,-3l-6 0 -1 0 0 -1 0 -6 0 0 1 0 16 0c7,0 11,1 14,5 2,3 3,8 3,13l0 72c0,4 2,6 4,8zm58 -4c2,4 6,6 10,6l0 0c4,0 7,-2 9,-4 3,-3 5,-6 5,-10l1 0 0 0c0,0 9,1 9,8 0,6 -2,10 -7,13 -4,3 -10,5 -18,5 -7,0 -15,-2 -20,-8 -6,-5 -10,-14 -10,-29l0 -109c0,-4 -1,-7 -2,-9 -3,-2 -6,-3 -9,-3l-6 0 -1 0 0 -1 0 -5 0 -1 1 0 18 0c6,0 9,1 12,4 3,3 4,7 4,12l0 113c0,7 1,14 4,18zm102 -88l0 -6 0 -1 0 0 48 0 1 0 0 1 0 6 0 1 -1 0c-3,0 -6,1 -8,3 -3,2 -5,6 -7,11l0 0c-2,7 -6,18 -11,33 -5,16 -12,35 -20,56l0 0c-4,13 -9,25 -16,34 -7,8 -15,14 -27,14 -8,0 -14,-2 -18,-5 -6,-5 -8,-10 -8,-15 0,-12 13,-14 13,-14l1 0 0 1c0,4 1,10 3,14 2,4 5,8 11,8 13,0 19,-20 24,-33 0,-2 1,-3 2,-5 -4,0 -8,-1 -11,-4 -3,-3 -6,-7 -8,-12l0 0c-6,-12 -12,-29 -18,-46 -3,-8 -6,-16 -8,-23 -1,-4 -3,-8 -6,-11 -2,-4 -5,-6 -10,-6l-1 0 0 -1c0,-2 1,-4 4,-6 2,-1 5,-2 9,-2 5,0 9,2 12,4 3,3 4,7 6,11l0 0c2,5 6,18 11,31 6,18 12,38 15,44l0 0c2,4 3,6 5,8 1,1 3,2 4,2 5,-15 13,-38 19,-56 4,-13 7,-24 7,-28 0,-2 0,-4 -3,-5 -2,-1 -6,-2 -14,-2l0 0 0 -1z"/>
   </g>
  </g>
 </g>
</svg>
